<svg xmlns="http://www.w3.org/2000/svg" viewBox="0 0 102.8 76.12"><g id="图层_2" data-name="图层 2"><g id="图层_1-2" data-name="图层 1"><path d="M34.9,74.84a1.64,1.64,0,0,1-2.1,1h0a1.64,1.64,0,0,1-1-2.1h0l8.12-21.82A1.65,1.65,0,0,1,43,53h0Zm27.78.2a1.64,1.64,0,0,1-2.1,1h0a1.65,1.65,0,0,1-1-2.11h0L67.71,52.1a1.64,1.64,0,0,1,3.09,1.12h0Z" style="fill:#9cdcf8"/><path d="M20.94,19.43S3.26,16.65.36,32.06c-1.6,8.5,2.35,13.68,7.41,16.8a22.76,22.76,0,0,0,9.4,3.23h69.5a25.51,25.51,0,0,0,6.73-1.38c5-1.89,10.58-6.14,9.18-16.14C101,22.93,88.49,23.37,88.49,23.37a12.34,12.34,0,0,0-9.15-12c-6.57-2-10.83.85-10.83.85S60.87-.84,45,0C24,1.22,20.94,19.43,20.94,19.43Z" style="fill:#78a4d6"/><path d="M101.13,34.59c-2-10.45-14-9.92-14-9.92s.55-9-8.47-11.93C73.22,11,68,13.7,68,13.7S60.05.28,45.1,1.36C24.94,2.82,21.92,21.08,21.92,21.08S5,17.48,1.8,32.18c-3.44,15.94,15,18.44,15,18.44H49.38s7.13-.55,10-3.73c3.93-4.29,4.13-10.59-.49-14-4.17-3.05-9.24-2.38-12.79-1-1.44.54-1.58.75-1.76.71s-.53-.42.33-1.05a11.29,11.29,0,0,1,4.44-2c7.21-1.66,14,1.95,15.86,7.45a16.14,16.14,0,0,1-.47,11.76c-.5,1.13-.74,1.11-.72,1.51s.55.38.55.38H87.42S103.91,49.26,101.13,34.59Z" style="fill:#c0e7fa"/><path d="M49.37,50.61s7.13-.55,10-3.73A10.12,10.12,0,0,0,61.93,37,8.5,8.5,0,0,0,60.07,34a1,1,0,0,0-.21-.21l-.27-.26c-.22-.19-.46-.39-.7-.57a10.88,10.88,0,0,0-5-2h-.08c5.69,3.47,3.78,9.42-.07,11.54C50.67,44.09,44,44.4,42,44c-12.54-2.53-12.12-9.19-11.83-11.79.08-.7.51-.93.19-1.1s-1.26.49-1.67.8a8.52,8.52,0,0,0-3.57,8.26A19.66,19.66,0,0,1,11,38.72C4.48,35.28,3.88,28.33,3.84,27l-.18.29c-.17.31-.44.76-.74,1.4-.12.25-.22.51-.33.77a2,2,0,0,0-.1.26c-.12.29-.21.6-.31.91,0,.11-.07.23-.11.35-.09.3-.16.59-.23.9-.11.47-.2,1-.29,1.51s-.11.87-.15,1.28c0,0,0,.09,0,.14,0,.34,0,.68,0,1v.4c0,.23,0,.47,0,.71.78,11.66,15.39,13.64,15.39,13.64Zm52.07-13.39a18.87,18.87,0,0,0-.31-2.59c0-.21-.09-.41-.12-.59l0-.19c0-.12-.06-.23-.09-.35a10.84,10.84,0,0,0-3.61-5.65c-.42-.33-.85-.64-1.29-.92,0,0,3.72,11-9.67,14.77C81.59,43,70.57,43.29,65.74,39.93a16.11,16.11,0,0,1-1.18,8.75c-.5,1.13-.74,1.11-.73,1.51s.56.38.56.38H87.46S101.88,49.42,101.44,37.22Z" style="fill:#9cdcf8"/><path d="M42.07,10c0,3.32,4.18,6,9.33,6s9.32-2.7,9.32-6S56.55,4,51.4,4s-9.33,2.7-9.33,6Z" style="fill:#fff"/><path d="M30.81,68l-1.35-.79,1.26,0a.52.52,0,0,0,.5-.57.53.53,0,0,0-.52-.5l-3.05,0L25.57,65l2.2-1.27,2.52.51a.54.54,0,1,0,.25-1.05h0l-1.32-.26L30.82,62a1.08,1.08,0,0,0,.4-1.48,1.09,1.09,0,0,0-1.49-.4l-1.36.79.62-1a.54.54,0,0,0-.93-.55L26.47,62l-2,1.14V60.45l1.63-2.3a.54.54,0,0,0-.88-.62l-.75,1.07V57.05a1.09,1.09,0,0,0-2.17,0V58.6l-.75-1a.53.53,0,0,0-.75-.11.55.55,0,0,0-.13.73l1.62,2.28v2.65l-2.4-1.39L19,59.35a.54.54,0,0,0-1,.39h0l.44,1.12-1.35-.78A1.09,1.09,0,0,0,16,62l1.37.79-1.4.06a.54.54,0,0,0,0,1.07l3.11-.11L21.23,65l-2.29,1.32-2.86-.16a.54.54,0,0,0-.54.53.53.53,0,0,0,.48.55l1.21.06L16,68a1.08,1.08,0,0,0,1.09,1.87l1.42-.82L18,70.35a.54.54,0,0,0,1,.41L20,68.2l2.3-1.33v3.07l-1.59,2.25a.54.54,0,0,0,.88.62l.71-1v1.13a1.09,1.09,0,0,0,2.17,0v-1.2l.79,1.11a.53.53,0,0,0,.75.1.54.54,0,0,0,.13-.72l-1.67-2.35v-3l2.27,1.31.91,2.45a.53.53,0,1,0,1-.37L28.2,69l1.53.88A1.09,1.09,0,0,0,30.86,68l-.05,0Z" style="fill:#9cdcf8"/><path d="M27.44,66.07,25.57,65l1.87-1.09A4.15,4.15,0,0,0,26.36,62l-1.88,1.08V60.94a4.2,4.2,0,0,0-2.17,0v2.17L20.43,62a4.1,4.1,0,0,0-1.08,1.87L21.23,65l-1.88,1.08A4.19,4.19,0,0,0,20.43,68l1.88-1.08V69a4.2,4.2,0,0,0,2.17,0V66.87L26.36,68a4.19,4.19,0,0,0,1.08-1.88Z" style="fill:#c0e7fa"/><path d="M86.62,68l-1.36-.79,1.26,0a.54.54,0,0,0,.51-.57.55.55,0,0,0-.53-.5l-3,0L81.37,65l2.2-1.27,2.53.51a.53.53,0,0,0,.64-.4.54.54,0,0,0-.4-.65h0L85,62.91,86.62,62a1.08,1.08,0,0,0,.4-1.48,1.09,1.09,0,0,0-1.49-.4h0l-1.36.79.62-1a.54.54,0,0,0-.93-.55L82.27,62l-2,1.15V60.45l1.63-2.3a.54.54,0,0,0-.15-.75.55.55,0,0,0-.73.13l-.75,1.07V57.05a1.09,1.09,0,0,0-2.17,0h0V58.6l-.75-1a.53.53,0,0,0-.87.62l1.61,2.28v2.65l-2.39-1.39-.94-2.37a.54.54,0,0,0-1,.39h0l.44,1.12-1.35-.78A1.08,1.08,0,0,0,71.79,62l1.37.79-1.4.06a.54.54,0,0,0,0,1.07l3.11-.11L77,65l-2.3,1.32-2.85-.16a.54.54,0,0,0-.06,1.08L73,67.3,71.79,68a1.08,1.08,0,0,0,1.08,1.88l1.42-.82-.53,1.27a.55.55,0,0,0,.32.7.54.54,0,0,0,.68-.29l1.06-2.56,2.3-1.33v3.07l-1.6,2.25a.53.53,0,0,0,.16.74.52.52,0,0,0,.72-.12l.72-1v1.13a1.09,1.09,0,0,0,2.17,0v-1.2l.78,1.11a.54.54,0,0,0,.76.1.53.53,0,0,0,.12-.72l-1.66-2.35v-3l2.27,1.31.9,2.45a.54.54,0,0,0,1-.37L84,69l1.52.88A1.09,1.09,0,1,0,86.66,68l0,0Z" style="fill:#9cdcf8"/><path d="M83.25,66.07,81.37,65l1.88-1.09A4.21,4.21,0,0,0,82.16,62l-1.87,1.09V60.94a4.24,4.24,0,0,0-2.18,0v2.17L76.23,62a4.1,4.1,0,0,0-1.08,1.87L77,65l-1.88,1.08A4.12,4.12,0,0,0,76.24,68l1.87-1.08V69a4.24,4.24,0,0,0,2.18,0V66.87L82.16,68a4.21,4.21,0,0,0,1.09-1.88Z" style="fill:#c0e7fa"/><path d="M58.72,68l-1.36-.79,1.26,0a.52.52,0,0,0,.5-.57.53.53,0,0,0-.52-.5l-3.05,0L53.47,65l2.2-1.27,2.52.51a.54.54,0,0,0,.25-1.05h0l-1.33-.26L58.72,62a1.08,1.08,0,1,0-1.08-1.88l-1.37.79.62-1a.54.54,0,0,0-.21-.73.53.53,0,0,0-.71.18L54.37,62l-2,1.14V60.45L54,58.15a.53.53,0,0,0-.87-.62l-.76,1.07V57.05a1.09,1.09,0,0,0-2.17,0V58.6l-.74-1a.54.54,0,0,0-.88.62l1.61,2.28v2.65l-2.4-1.39-.93-2.37a.54.54,0,0,0-1,.39h0l.44,1.12L45,60.08A1.09,1.09,0,0,0,43.88,62h0l1.37.79-1.4.06a.54.54,0,0,0,0,1.07L47,63.77,49.13,65l-2.29,1.32L44,66.16a.54.54,0,0,0,0,1.08l1.2.06L43.88,68A1.08,1.08,0,0,0,45,69.9l1.42-.81-.53,1.26a.54.54,0,0,0,1,.41l1-2.56,2.31-1.33v3.07l-1.61,2.25a.53.53,0,0,0,.16.74.52.52,0,0,0,.72-.12l.72-1v1.13a1.09,1.09,0,0,0,2.17,0h0v-1.2l.78,1.11a.54.54,0,0,0,.76.1.53.53,0,0,0,.12-.72l-1.66-2.35v-3l2.27,1.31.9,2.45a.54.54,0,0,0,1-.37L56.1,69l1.52.88A1.09,1.09,0,1,0,58.75,68l0,0Z" style="fill:#9cdcf8"/><path d="M55.34,66.07,53.47,65l1.87-1.09A4.19,4.19,0,0,0,54.26,62l-1.88,1.09V60.94a4.2,4.2,0,0,0-2.17,0v2.17L48.33,62a4.1,4.1,0,0,0-1.08,1.87L49.13,65l-1.88,1.08A4.19,4.19,0,0,0,48.33,68l1.88-1.08V69a4.2,4.2,0,0,0,2.17,0V66.87L54.26,68a4.19,4.19,0,0,0,1.08-1.88Z" style="fill:#c0e7fa"/></g></g></svg>