<svg xmlns="http://www.w3.org/2000/svg" viewBox="0 0 102.4 76.95"><g id="图层_2" data-name="图层 2"><g id="图层_1-2" data-name="图层 1"><path d="M20.86,19.36S3.25,16.59.36,31.93C-1.23,40.4,2.7,45.56,7.74,48.68a22.79,22.79,0,0,0,9.37,3.21H86.34A25.32,25.32,0,0,0,93,50.51c5-1.88,10.54-6.11,9.15-16.08-1.62-11.59-14-11.15-14-11.15A12.3,12.3,0,0,0,79,11.36c-6.54-2-10.78.84-10.78.84S60.63-.84,44.77,0C23.87,1.22,20.86,19.36,20.86,19.36Z" style="fill:#78a4d6"/><path d="M100.74,34.46c-2-10.41-13.91-9.89-13.91-9.89s.55-9-8.43-11.88c-5.46-1.76-10.64,1-10.64,1S59.83.28,44.94,1.35C24.85,2.81,21.83,21,21.83,21S5,17.41,1.79,32.06C-1.64,47.94,16.73,50.43,16.73,50.43H49.19s7.11-.55,10-3.72c3.91-4.27,4.11-10.55-.49-13.92-4.16-3-9.21-2.36-12.75-1-1.44.54-1.57.75-1.75.71s-.53-.41.33-1a11.26,11.26,0,0,1,4.42-2c7.18-1.66,13.94,1.94,15.8,7.41a16,16,0,0,1-.47,11.72c-.5,1.13-.73,1.1-.72,1.51s.55.38.55.38h23S103.51,49.07,100.74,34.46Z" style="fill:#c0e7fa"/><path d="M49.18,50.42s7.11-.56,10-3.72a10.09,10.09,0,0,0,2.52-9.8,8.43,8.43,0,0,0-1.85-3.08,1,1,0,0,0-.21-.21l-.27-.26c-.22-.19-.46-.39-.7-.57a11,11,0,0,0-5-2h-.07c5.66,3.46,3.76,9.39-.08,11.5-3,1.66-9.63,2-11.71,1.54C29.3,41.27,29.71,34.64,30,32.06c.07-.7.5-.94.18-1.11s-1.25.49-1.67.8A8.51,8.51,0,0,0,25,40a19.59,19.59,0,0,1-14-1.41C4.47,35.15,3.87,28.23,3.83,26.94l-.18.29a14.3,14.3,0,0,0-.74,1.4l-.33.76c0,.09-.06.17-.1.26-.11.29-.21.6-.31.9,0,.12-.07.23-.11.36a8.45,8.45,0,0,0-.22.9c-.12.46-.21.95-.3,1.5s-.11.86-.14,1.28c0,0,0,.08,0,.13,0,.34,0,.68,0,1v.4c0,.23,0,.47,0,.7.79,11.62,15.34,13.59,15.34,13.59Zm51.87-13.34a18.54,18.54,0,0,0-.31-2.58c0-.21-.08-.41-.12-.59l0-.19c0-.12-.06-.23-.08-.35a10.78,10.78,0,0,0-3.61-5.63,14.15,14.15,0,0,0-1.28-.91S99.32,37.77,86,41.54c-4.69,1.32-15.67,1.58-20.48-1.77a16.19,16.19,0,0,1-1.18,8.72c-.5,1.13-.74,1.1-.73,1.51s.56.38.56.38h23S101.49,49.23,101.05,37.08Z" style="fill:#9cdcf8"/><path d="M41.91,10c0,3.31,4.16,6,9.29,6s9.29-2.68,9.29-6S56.33,4,51.2,4s-9.29,2.68-9.29,6Z" style="fill:#fff"/><path d="M26.43,60.78A2.21,2.21,0,0,1,24.22,63H21.4a2.21,2.21,0,0,1-2.21-2.21h0V58a2.21,2.21,0,0,1,2.21-2.21h2.82A2.21,2.21,0,0,1,26.43,58h0Z" style="fill:#9cdcf8"/><path d="M21.4,55.75A2.12,2.12,0,0,0,21.26,60h3a2.12,2.12,0,0,0,.14-4.24h-3Z" style="fill:#c0e7fa"/><path d="M45.29,74.73A2.21,2.21,0,0,1,43.07,77H40.25A2.21,2.21,0,0,1,38,74.74h0V71.91a2.21,2.21,0,0,1,2.21-2.21h2.82a2.21,2.21,0,0,1,2.22,2.21h0Z" style="fill:#9cdcf8"/><path d="M40.25,69.7a2.12,2.12,0,0,0-.14,4.24h3a2.12,2.12,0,0,0,.14-4.24h-3Z" style="fill:#c0e7fa"/><path d="M64.14,60.78A2.21,2.21,0,0,1,61.93,63H59.11a2.22,2.22,0,0,1-2.22-2.21h0V58a2.21,2.21,0,0,1,2.22-2.21h2.82A2.21,2.21,0,0,1,64.14,58h0Z" style="fill:#9cdcf8"/><path d="M59.11,55.75A2.12,2.12,0,0,0,59,60h3a2.12,2.12,0,0,0,.14-4.24h-3Z" style="fill:#c0e7fa"/><path d="M83,74.73A2.21,2.21,0,0,1,80.78,77H78a2.21,2.21,0,0,1-2.21-2.21h0V71.91A2.21,2.21,0,0,1,78,69.7h2.82A2.21,2.21,0,0,1,83,71.91h0Z" style="fill:#9cdcf8"/><path d="M78,69.7a2.12,2.12,0,0,0-.14,4.24h3a2.12,2.12,0,1,0,.14-4.24H78Z" style="fill:#c0e7fa"/></g></g></svg>