<svg xmlns="http://www.w3.org/2000/svg" viewBox="0 0 105.92 83.07"><g id="图层_2" data-name="图层 2"><g id="图层_1-2" data-name="图层 1"><path d="M21.58,20S3.36,17.16.37,33C-1.28,41.79,2.79,47.13,8,50.35a23.55,23.55,0,0,0,9.69,3.32H89.3a26.08,26.08,0,0,0,6.93-1.42c5.15-2,10.91-6.33,9.46-16.63-1.67-12-14.52-11.54-14.52-11.54a12.71,12.71,0,0,0-9.43-12.33c-6.77-2-11.15.87-11.15.87S62.72-.87,46.31,0C24.69,1.26,21.58,20,21.58,20Z" style="fill:#78a4d6"/><path d="M104.19,35.64c-2-10.76-14.39-10.22-14.39-10.22s.57-9.29-8.72-12.29c-5.64-1.83-11,1-11,1S61.87.29,46.47,1.4C25.7,2.91,22.58,21.72,22.58,21.72S5.14,18,1.85,33.16c-3.54,16.42,15.46,19,15.46,19H50.87s7.36-.57,10.34-3.84c4-4.43,4.25-10.92-.51-14.4-4.3-3.15-9.52-2.45-13.19-1.07-1.48.56-1.62.78-1.81.74s-.54-.43.34-1.08a11.73,11.73,0,0,1,4.58-2.09c7.43-1.71,14.42,2,16.34,7.67a16.64,16.64,0,0,1-.48,12.12c-.52,1.16-.76,1.14-.75,1.56s.57.39.57.39H90.07s17-1.41,14.12-16.52Z" style="fill:#c0e7fa"/><path d="M50.86,52.15s7.36-.57,10.33-3.85a10.43,10.43,0,0,0,2.62-10.14A8.86,8.86,0,0,0,61.89,35a1.39,1.39,0,0,0-.21-.21l-.28-.27c-.23-.2-.48-.41-.73-.59a11.22,11.22,0,0,0-5.18-2.09h-.08c5.86,3.57,3.89,9.71-.08,11.89-3.13,1.72-10,2-12.12,1.59C30.3,42.69,30.73,35.84,31,33.16c.08-.72.52-1,.19-1.14s-1.3.51-1.72.83a8.78,8.78,0,0,0-3.68,8.51,20.31,20.31,0,0,1-14.48-1.47C4.62,36.35,4,29.19,4,27.86l-.19.3c-.18.32-.46.79-.76,1.45-.12.25-.23.52-.35.78,0,.09-.06.18-.1.27-.12.3-.21.62-.31.94,0,.12-.08.23-.12.36-.09.31-.17.61-.23.93a14.94,14.94,0,0,0-.3,1.56c-.08.46-.12.89-.16,1.32,0,0,0,.09,0,.14,0,.35,0,.69,0,1v.41c0,.24,0,.49,0,.73.81,12,15.86,14.06,15.86,14.06Zm53.65-13.8a18.53,18.53,0,0,0-.32-2.67c0-.22-.08-.42-.12-.61l0-.19c0-.13-.06-.24-.09-.37a11.17,11.17,0,0,0-3.72-5.82c-.43-.33-.88-.65-1.34-.94,0,0,3.85,11.32-10,15.21-4.86,1.37-16.21,1.64-21.18-1.82a16.71,16.71,0,0,1-1.22,9c-.52,1.16-.76,1.14-.75,1.55s.57.4.57.4H90.11s14.86-1.19,14.4-13.76Z" style="fill:#9cdcf8"/><path d="M43.35,10.31c0,3.43,4.3,6.2,9.6,6.2s9.61-2.77,9.61-6.2-4.3-6.2-9.61-6.2-9.6,2.78-9.6,6.2Z" style="fill:#fff"/><path d="M69.43,57.69c-.32,3-4.33,9.6-4.33,13.84,0,3,1.94,5.49,4.33,5.49s4.32-2.46,4.32-5.49C73.75,67.11,69.7,60.74,69.43,57.69Zm-32.77,0c-.32,3-4.32,9.6-4.32,13.84,0,3,1.94,5.49,4.32,5.49S41,74.56,41,71.53C41,67.11,36.94,60.74,36.66,57.69Z" style="fill:#9cdcf8"/><path d="M59.89,57.69H49.29L45.81,71.33l5.77,0L48.94,83.07,59.67,67.2h-5ZM59,67.57c-1.71,2.61-9.27,13.74-9.27,13.74l2.35-10.38-5.77,0,3.29-12.89h9.68l-5.2,9.51Z" style="fill:#f58a33"/><path d="M58.36,58.6H50l-2,7.67h6.13Z" style="fill:#fcb958"/><path d="M52.69,70.43,50.21,80.2S54.53,73.39,58,68.11H53.16l1-1.84H48L47,70.42Z" style="fill:#f58a33"/></g></g></svg>