<svg xmlns="http://www.w3.org/2000/svg" viewBox="0 0 104.97 94.03"><g id="图层_2" data-name="图层 2"><g id="图层_1-2" data-name="图层 1"><path d="M16.79,88.29a1.79,1.79,0,0,1-3.37-1.22l5.16-14.18A1.79,1.79,0,0,1,22,74.11h0Zm37.82,0a1.78,1.78,0,0,1-2.29,1.07h0a1.78,1.78,0,0,1-1.07-2.29h0l5.16-14.18a1.79,1.79,0,0,1,3.36,1.22h0Zm-18.91,0a1.79,1.79,0,0,1-2.29,1.07h0a1.8,1.8,0,0,1-1.07-2.29h0L37.5,72.89a1.79,1.79,0,0,1,3.36,1.22h0Zm8.11,4.56a1.8,1.8,0,0,1-2.29,1.07h0a1.79,1.79,0,0,1-1.07-2.3h0L42.78,85A1.79,1.79,0,0,1,45.08,84h0a1.78,1.78,0,0,1,1.07,2.29h0Zm19.23,0a1.8,1.8,0,0,1-2.29,1.07h0a1.79,1.79,0,0,1-1.07-2.3h0L62,85a1.79,1.79,0,0,1,3.37,1.22h0Zm10.49-4.56a1.79,1.79,0,0,1-2.3,1.07h0a1.79,1.79,0,0,1-1.07-2.29h0l5.16-14.18a1.79,1.79,0,0,1,3.37,1.22h0Zm8.74,4.56A1.8,1.8,0,0,1,80,93.92h0a1.79,1.79,0,0,1-1.07-2.3h0L81.24,85a1.79,1.79,0,0,1,3.37,1.22h0Zm-57.69-.78a1.78,1.78,0,0,1-2.29,1.07h0a1.78,1.78,0,0,1-1.07-2.29h0l2.34-6.61a1.79,1.79,0,0,1,2.29-1.08h0a1.78,1.78,0,0,1,1.07,2.29h0Z" style="fill:#9cdcf8"/><path d="M105,24.6c-6.25.23-8.08-1.35-5.81-5-4.28-.52-4.37-2.94-.3-7.68-5.53,2.92-7.87,2.29-7.41-2-4.07,1.4-5.2-.74-3.6-6.77-3.73,5-6.1,5.47-7.54,1.42-3.08,3-5,1.59-6.19-4.56C72.94,6.15,71,7.58,67.93,4.56c-1.46,4.06-3.83,3.6-7.54-1.42,1.62,6,.49,8.17-3.61,6.77.46,4.29-1.88,4.92-7.41,2,4.08,4.74,4,7.15-.29,7.68,2.26,3.68.44,5.25-5.82,5,5.73,2.51,6.7,4.73,3.07,7C50,34,49,36.2,43.26,38.7c6.25-.23,8.08,1.35,5.82,5,4.27.52,4.37,2.94.29,7.68,5.53-2.92,7.87-2.29,7.41,2,4.08-1.4,5.2.74,3.61,6.78,3.72-5,6.09-5.48,7.54-1.42,3.07-3,5-1.6,6.19,4.55,1.17-6.15,3.11-7.57,6.19-4.55,1.45-4.07,3.82-3.62,7.54,1.42-1.63-6.05-.49-8.18,3.6-6.78-.46-4.29,1.88-4.92,7.41-2-4.07-4.74-4-7.16.3-7.68-2.27-3.67-.45-5.24,5.81-5-5.73-2.5-6.7-4.72-3.07-7.05C98.29,29.33,99.24,27.11,105,24.6ZM74.13,57.25a37,37,0,0,1-25.6-25.6,37,37,0,0,1,25.6-25.6,37,37,0,0,1,25.6,25.6A37,37,0,0,1,74.13,57.25Z" style="fill:#f9a433"/><path d="M100.32,31.65c0-.28-.95-2.12-1-2.39a11.14,11.14,0,0,0-.59-3.06L99,26a2.18,2.18,0,0,1-.27-.11A25.24,25.24,0,0,0,94,16.07c0-.1.06-.19.1-.3l-.31,0A25.3,25.3,0,0,0,85.21,9a1.53,1.53,0,0,1,0-.3l-.25.16C81.7,7.32,79.81,6.45,76,6.42,76,6.34,74.19,5,74.14,4.87c0,.09-2.07,1.47-2.11,1.55-3.81,0-5.47.9-8.7,2.44l-.24-.16c0,.1,0,.19,0,.3a25.23,25.23,0,0,0-8.51,6.8l-.31,0c0,.1.06.19.1.3a25.26,25.26,0,0,0-4.75,9.8l-.27.11.2.21a12.72,12.72,0,0,0-.6,3.32c0,.24-1,1.89-1,2.14s1,2.12,1,2.33a10.92,10.92,0,0,0,.6,3.13l-.2.21.27.11a25,25,0,0,0,4.75,9.81c0,.09-.06.2-.1.29l.31,0a25.35,25.35,0,0,0,8.51,6.8,1,1,0,0,1,0,.29c.08-.06.16-.09.24-.15,3.23,1.54,4.49,2.4,8.28,2.43,0,.08,2.47,1.45,2.52,1.54.05-.09,2.09-1.46,2.15-1.54,3.8,0,5.42-.89,8.65-2.43a1.28,1.28,0,0,1,.25.15l0-.29a25.58,25.58,0,0,0,8.53-6.82,3,3,0,0,0,.31,0c0-.1-.06-.19-.1-.3a25.2,25.2,0,0,0,4.75-9.8l.27-.11-.2-.21a10.86,10.86,0,0,0,.6-3.06c0-.23.95-2.15.95-2.39ZM74.13,54.22A22.57,22.57,0,1,1,96.7,31.65,22.57,22.57,0,0,1,74.13,54.22Z" style="fill:#f9a433"/><path d="M54.09,31.65a20,20,0,1,0,20-20A20,20,0,0,0,54.09,31.65Z" style="fill:#f58a33"/><path d="M74.13,11.62A20,20,0,0,0,54.7,26.73a20,20,0,0,0,38.85,0A20,20,0,0,0,74.13,11.62Z" style="fill:#f79a4d"/><path d="M66.24,19.94c0,4,3.94,7.17,8.82,7.17s8.82-3.21,8.82-7.17-3.95-7.16-8.82-7.16S66.24,16,66.24,19.94Z" style="fill:#f4b04e"/><path d="M72,16.2c0,1.33,1.63,2.41,3.64,2.41s3.64-1.08,3.64-2.41h0c0-1.34-1.63-2.42-3.64-2.42S72,14.86,72,16.2Z" style="fill:#ffeec5"/><path d="M20.29,40.78S3.17,38.09.35,53C-1.2,61.24,2.63,66.25,7.53,69.28a21.91,21.91,0,0,0,9.1,3.12H84a24.73,24.73,0,0,0,6.52-1.33c4.84-1.84,10.25-5.95,8.89-15.64C97.79,44.16,85.72,44.58,85.72,44.58A12,12,0,0,0,76.85,33c-6.36-1.91-10.49.82-10.49.82S59,21.13,43.55,22C23.2,23.14,20.29,40.78,20.29,40.78Z" style="fill:#78a4d6"/><path d="M98,55.47C96,45.35,84.43,45.86,84.43,45.86s.54-8.74-8.2-11.55a14.75,14.75,0,0,0-10.35.92s-7.71-13-22.19-11.95C24.16,24.7,21.23,42.39,21.23,42.39S4.84,38.89,1.75,53.13C-1.59,68.58,16.27,71,16.27,71H47.83s6.92-.54,9.71-3.62c3.81-4.16,4-10.27-.48-13.54-4-3-9-2.31-12.39-1-1.39.53-1.52.73-1.7.69s-.52-.41.32-1a10.79,10.79,0,0,1,4.3-2c7-1.61,13.55,1.88,15.36,7.21a15.62,15.62,0,0,1-.46,11.39c-.49,1.1-.72,1.07-.71,1.47s.54.38.54.38H84.67s16-1.34,13.29-15.54Z" style="fill:#c0e7fa"/><path d="M47.82,71s6.92-.54,9.71-3.61A9.83,9.83,0,0,0,60,57.83a8.35,8.35,0,0,0-1.8-3,1.19,1.19,0,0,0-.2-.19,2.06,2.06,0,0,0-.26-.25c-.21-.19-.44-.38-.68-.57a10.67,10.67,0,0,0-4.87-2h-.07C57.62,55.22,55.77,61,52,63c-2.95,1.63-9.38,1.92-11.4,1.51C28.5,62.09,28.9,55.65,29.19,53.13c.07-.68.5-.9.18-1.07s-1.23.48-1.62.78a8.23,8.23,0,0,0-3.45,8,19,19,0,0,1-13.63-1.38c-6.36-3.33-6.95-10.05-7-11.3l-.17.29a13.43,13.43,0,0,0-.72,1.36c-.1.23-.21.49-.31.74,0,.08-.06.16-.1.24-.1.29-.2.59-.29.89,0,.1-.07.22-.11.34q-.12.42-.21.87c-.11.45-.2.92-.28,1.46s-.11.84-.14,1.24c0,0,0,.08,0,.13,0,.32,0,.65,0,1v.39c0,.22,0,.46,0,.68C2.09,69.06,16.24,71,16.24,71ZM98.26,58A17.84,17.84,0,0,0,98,55.5c0-.2-.08-.38-.12-.57l0-.18-.09-.34a10.53,10.53,0,0,0-3.5-5.47A12.29,12.29,0,0,0,93,48.05s3.62,10.64-9.37,14.3C79,63.64,68.36,63.9,63.69,60.65a15.8,15.8,0,0,1-1.14,8.48c-.5,1.09-.72,1.07-.71,1.47s.54.37.54.37H84.72s14-1.15,13.54-12.95Z" style="fill:#9cdcf8"/><path d="M40.75,31.65c0,3.22,4,5.83,9,5.83s9-2.61,9-5.82h0c0-3.22-4-5.83-9-5.83s-9,2.61-9,5.83Z" style="fill:#fff"/></g></g></svg>