<svg xmlns="http://www.w3.org/2000/svg" viewBox="0 0 103.97 78.11"><g id="图层_2" data-name="图层 2"><g id="图层_1-2" data-name="图层 1"><path d="M28.33,67.43a1.83,1.83,0,1,1-3.44-1.25l5.28-14.5a1.83,1.83,0,1,1,3.44,1.25h0ZM15.53,73.9a1.83,1.83,0,0,1-3.44-1.25l5.28-14.51a1.82,1.82,0,0,1,2.34-1.09,1.84,1.84,0,0,1,1.1,2.35h0Zm23.06,0a1.83,1.83,0,0,1-3.44-1.25l5.28-14.51a1.83,1.83,0,1,1,3.44,1.26h0Zm22.24,0a1.83,1.83,0,0,1-3.44-1.25l5.28-14.51A1.82,1.82,0,0,1,65,57.05a1.84,1.84,0,0,1,1.1,2.35Zm26.08,0a1.83,1.83,0,0,1-3.44-1.25l5.28-14.51a1.82,1.82,0,0,1,2.34-1.09,1.84,1.84,0,0,1,1.1,2.35h0Zm-61.57,3a1.83,1.83,0,0,1-3.44-1.26h0l1.55-4.29a1.82,1.82,0,0,1,2.34-1.09,1.84,1.84,0,0,1,1.1,2.35h0Zm23,0a1.83,1.83,0,0,1-3.45-1.25h0l1.55-4.29a1.82,1.82,0,0,1,2.34-1.09,1.84,1.84,0,0,1,1.1,2.35h0Zm24.14,0a1.83,1.83,0,0,1-3.45-1.25h0l1.54-4.29A1.84,1.84,0,0,1,73,70.27h0a1.84,1.84,0,0,1,1.1,2.35h0Zm3.25-9.48a1.83,1.83,0,0,1-2.34,1.1h0a1.83,1.83,0,0,1-1.09-2.35h0l5.28-14.5A1.83,1.83,0,1,1,81,52.93h0Zm-24.22,0a1.83,1.83,0,0,1-2.34,1.1h0a1.84,1.84,0,0,1-1.1-2.35h0l5.28-14.5a1.83,1.83,0,1,1,3.44,1.25h0Z" style="fill:#9cdcf8"/><path d="M21.18,19.65S3.3,16.84.36,32.42c-1.61,8.6,2.38,13.84,7.5,17a23,23,0,0,0,9.5,3.26h70.3a25.83,25.83,0,0,0,6.8-1.39c5.06-1.92,10.71-6.21,9.29-16.33C102.1,23.19,89.5,23.64,89.5,23.64a12.49,12.49,0,0,0-9.26-12.11c-6.65-2-10.95.86-10.95.86S61.56-.85,45.46,0C24.23,1.24,21.18,19.65,21.18,19.65Z" style="fill:#78a4d6"/><path d="M102.28,35c-2-10.56-14.13-10-14.13-10s.56-9.12-8.56-12.07c-5.54-1.79-10.8,1-10.8,1S60.74.28,45.62,1.37c-20.39,1.48-23.45,20-23.45,20S5,17.67,1.82,32.55C-1.66,48.67,17,51.2,17,51.2h33s7.22-.56,10.14-3.77c4-4.34,4.18-10.72-.5-14.14-4.22-3.08-9.34-2.4-12.94-1-1.46.55-1.59.76-1.78.72s-.53-.42.34-1.06a11.48,11.48,0,0,1,4.49-2.05c7.29-1.68,14.15,2,16,7.53a16.28,16.28,0,0,1-.47,11.89c-.51,1.15-.75,1.12-.74,1.53s.56.39.56.39H88.42S105.09,49.82,102.28,35Z" style="fill:#c0e7fa"/><path d="M49.93,51.19s7.22-.56,10.14-3.77a10.22,10.22,0,0,0,2.56-10,8.39,8.39,0,0,0-1.88-3.12,1,1,0,0,0-.21-.21,3.44,3.44,0,0,0-.27-.27c-.23-.2-.47-.39-.71-.58a11.14,11.14,0,0,0-5.09-2.05H54.4c5.74,3.51,3.82,9.53-.08,11.67-3.07,1.7-9.78,2-11.9,1.57-12.68-2.56-12.25-9.29-12-11.92.07-.71.51-.95.18-1.12s-1.27.5-1.69.81a8.63,8.63,0,0,0-3.61,8.36,19.91,19.91,0,0,1-14.22-1.43c-6.6-3.49-7.21-10.52-7.24-11.83l-.19.3c-.17.31-.45.77-.75,1.42l-.33.77c0,.09-.07.18-.1.26-.12.3-.21.61-.31.92l-.12.37a8.45,8.45,0,0,0-.22.9,15.37,15.37,0,0,0-.3,1.53,12.35,12.35,0,0,0-.15,1.3s0,.08,0,.13c0,.35,0,.69,0,1v.41c0,.23,0,.47,0,.71C2.19,49.18,17,51.19,17,51.19Zm52.66-13.54a17.81,17.81,0,0,0-.31-2.63c0-.21-.09-.41-.12-.6l0-.18c0-.13-.06-.24-.09-.36a10.94,10.94,0,0,0-3.66-5.72,14.55,14.55,0,0,0-1.3-.92s3.77,11.11-9.78,14.93c-4.77,1.34-15.92,1.61-20.8-1.79a16.27,16.27,0,0,1-1.2,8.85c-.51,1.15-.74,1.12-.73,1.53s.56.39.56.39H88.45S103,50,102.59,37.65Z" style="fill:#9cdcf8"/><path d="M42.55,10.12c0,3.36,4.22,6.09,9.43,6.09s9.43-2.73,9.43-6.09S57.19,4,52,4,42.55,6.76,42.55,10.12Z" style="fill:#fff"/></g></g></svg>