<svg xmlns="http://www.w3.org/2000/svg" viewBox="0 0 83.06 94.2"><g id="图层_2" data-name="图层 2"><g id="图层_1-2" data-name="图层 1"><path d="M73,75.85a47.51,47.51,0,0,1-12.43-3.11A40.07,40.07,0,0,1,45.41,61.61c-5.69-6.89-9.87-14.28-9.92-27.74A41.91,41.91,0,0,1,42,12.2a44.34,44.34,0,0,1,8.32-9.41c.58-.5,2.25-1.33,2.21-1.77S51,.34,50.06.22a22.55,22.55,0,0,0-3-.22,47.1,47.1,0,0,0,0,94.2A45.42,45.42,0,0,0,78.24,82.34a35.53,35.53,0,0,0,3.43-3.4c1.59-1.9,1.68-3.23.93-3.31a45.78,45.78,0,0,1-9.65.22Z" style="fill:#fdbc11"/><path d="M76.58,77.6A42.8,42.8,0,0,1,49.43,1.69c-.83,0-1.67-.07-2.51-.07A45.47,45.47,0,1,0,80.81,77.38C79.41,77.52,78,77.6,76.58,77.6Z" style="fill:#f58a33"/><path d="M47,65.71a42.78,42.78,0,0,1,2.45-64c-.83,0-1.67-.07-2.51-.07A45.46,45.46,0,0,0,1.45,47.09a46.9,46.9,0,0,0,.81,8.6A38.91,38.91,0,0,0,31.45,69,38.13,38.13,0,0,0,47,65.71Z" style="fill:#f79a4d"/><path d="M8.55,22.67A26,26,0,0,0,32.94,39.59l1.09,0a44.38,44.38,0,0,1-.27-4.76A42.71,42.71,0,0,1,49.43,1.7c-.83,0-1.67-.07-2.51-.07a45.43,45.43,0,0,0-38.37,21Z" style="fill:#f4b04e"/><path d="M26.06,6.67A17,17,0,0,0,36.34,20.12,43,43,0,0,1,49.42,1.69c-.83,0-1.67-.07-2.51-.07A45.38,45.38,0,0,0,26.06,6.67Z" style="fill:#f2c051"/></g></g></svg>