<svg xmlns="http://www.w3.org/2000/svg" viewBox="0 0 102.8 74.67"><g id="图层_2" data-name="图层 2"><g id="图层_1-2" data-name="图层 1"><path d="M28,66.68a1.81,1.81,0,0,1-3.4-1.24L29.83,51.1a1.81,1.81,0,0,1,3.4,1.24h0Zm45.42,0a1.81,1.81,0,0,1-2.32,1.08h0A1.81,1.81,0,0,1,70,65.44h0L75.24,51.1a1.81,1.81,0,0,1,3.41,1.24h0Zm-22.71,0a1.81,1.81,0,0,1-2.32,1.08h0a1.8,1.8,0,0,1-1.08-2.32h0L52.54,51.1A1.8,1.8,0,0,1,54.85,50h0a1.81,1.81,0,0,1,1.08,2.32h0Z" style="fill:#9cdcf8"/><path d="M20.94,19.43S3.26,16.65.36,32.06c-1.6,8.5,2.35,13.68,7.41,16.81a22.83,22.83,0,0,0,9.4,3.22h69.5a25,25,0,0,0,6.73-1.38c5-1.89,10.58-6.14,9.18-16.14C101,22.93,88.49,23.37,88.49,23.37a12.34,12.34,0,0,0-9.15-12c-6.57-2-10.83.85-10.83.85S60.87-.84,45,0C24,1.22,20.94,19.43,20.94,19.43Z" style="fill:#78a4d6"/><path d="M101.13,34.59c-2-10.44-14-9.92-14-9.92s.56-9-8.46-11.93C73.22,11,68,13.7,68,13.7S60.06.28,45.11,1.36C24.94,2.82,21.92,21.08,21.92,21.08S5,17.48,1.8,32.18c-3.44,16,15,18.45,15,18.45H49.38s7.13-.56,10-3.73c3.92-4.3,4.13-10.6-.5-14-4.17-3.05-9.24-2.37-12.79-1-1.44.54-1.58.75-1.76.71s-.53-.42.33-1a11.29,11.29,0,0,1,4.44-2c7.21-1.66,14,1.95,15.86,7.45a16.09,16.09,0,0,1-.47,11.76c-.5,1.13-.74,1.11-.72,1.51s.55.39.55.39H87.42s16.49-1.37,13.71-16Z" style="fill:#c0e7fa"/><path d="M49.37,50.61s7.13-.55,10-3.73A10.11,10.11,0,0,0,61.93,37,8.58,8.58,0,0,0,60.07,34l-.21-.21a3.32,3.32,0,0,0-.27-.25c-.22-.2-.46-.4-.7-.58a11.1,11.1,0,0,0-5-2h-.08c5.69,3.47,3.78,9.43-.07,11.54C50.67,44.1,44,44.4,42,44c-12.54-2.53-12.12-9.19-11.83-11.78.08-.7.51-.94.19-1.11s-1.26.49-1.68.8a8.53,8.53,0,0,0-3.56,8.26A19.69,19.69,0,0,1,11,38.73C4.48,35.3,3.88,28.34,3.84,27.05l-.18.3c-.17.3-.44.76-.74,1.4-.12.24-.22.5-.33.76a2.77,2.77,0,0,0-.1.26c-.12.29-.21.6-.31.91,0,.11-.07.23-.11.36-.09.29-.16.59-.23.9s-.2,1-.29,1.51-.11.86-.15,1.28c0,.05,0,.08,0,.13,0,.35,0,.68,0,1v.41c0,.23,0,.47,0,.7.79,11.65,15.39,13.63,15.39,13.63Zm52.06-13.38a17.41,17.41,0,0,0-.31-2.6c0-.21-.08-.41-.12-.59l0-.19c0-.12-.06-.23-.08-.36a10.82,10.82,0,0,0-3.62-5.64A14.41,14.41,0,0,0,96,26.93s3.73,11-9.67,14.76c-4.72,1.33-15.74,1.6-20.57-1.76a16.11,16.11,0,0,1-1.18,8.75c-.5,1.13-.74,1.1-.72,1.51s.55.38.55.38H87.46s14.42-1.15,14-13.34Z" style="fill:#9cdcf8"/><path d="M42.07,10c0,3.32,4.18,6,9.33,6s9.32-2.7,9.32-6S56.55,4,51.4,4,42.07,6.69,42.07,10Z" style="fill:#fff"/><path d="M17.56,55.9c-.31,2.89-4.19,9.32-4.19,13.43,0,3,1.88,5.34,4.19,5.34s4.2-2.39,4.2-5.34C21.76,65,17.83,58.86,17.56,55.9Zm22.71,0c-.31,2.89-4.2,9.32-4.2,13.43,0,3,1.88,5.34,4.2,5.34s4.2-2.39,4.2-5.34C44.47,65,40.54,58.86,40.27,55.9ZM63,55.9c-.31,2.89-4.2,9.32-4.2,13.43,0,3,1.88,5.34,4.2,5.34s4.2-2.39,4.2-5.34C67.18,65,63.25,58.86,63,55.9Zm22.71,0c-.31,2.89-4.2,9.32-4.2,13.43,0,3,1.88,5.34,4.2,5.34s4.2-2.39,4.2-5.34C89.89,65,86,58.86,85.69,55.9Z" style="fill:#9cdcf8"/></g></g></svg>