<svg xmlns="http://www.w3.org/2000/svg" viewBox="0 0 102.8 72.47"><g id="图层_2" data-name="图层 2"><g id="图层_1-2" data-name="图层 1"><path d="M18.82,66.68a1.81,1.81,0,0,1-2.32,1.08h0a1.82,1.82,0,0,1-1.08-2.32L20.63,51.1A1.81,1.81,0,0,1,24,52.34h0Zm31.21,0a1.8,1.8,0,0,1-2.31,1.08h0a1.82,1.82,0,0,1-1.08-2.32h0L51.85,51.1a1.81,1.81,0,0,1,3.4,1.24h0Zm-15.61,0a1.8,1.8,0,0,1-2.31,1.08h0A1.81,1.81,0,0,1,31,65.44h0L36.24,51.1a1.81,1.81,0,0,1,3.4,1.24h0ZM40,71.28a1.82,1.82,0,0,1-2.32,1.09h0a1.8,1.8,0,0,1-1.09-2.31h0L39,63.37a1.81,1.81,0,0,1,2.32-1.09h0a1.81,1.81,0,0,1,1.08,2.32h0Zm15.85,0a1.81,1.81,0,0,1-2.32,1.09h0a1.8,1.8,0,0,1-1.08-2.31h0l2.36-6.68a1.81,1.81,0,1,1,3.41,1.23h0Zm9.76-4.6a1.81,1.81,0,0,1-2.32,1.08h0a1.81,1.81,0,0,1-1.08-2.32h0L67.46,51.1a1.81,1.81,0,0,1,3.4,1.24h0Zm5.85,4.6a1.81,1.81,0,0,1-2.32,1.09h0a1.8,1.8,0,0,1-1.08-2.31h0l2.36-6.68a1.81,1.81,0,1,1,3.4,1.23h0Zm9.76-4.6a1.81,1.81,0,0,1-2.32,1.08h0a1.81,1.81,0,0,1-1.08-2.32h0L83.07,51.1a1.81,1.81,0,0,1,3.4,1.24Zm5.85,4.6a1.81,1.81,0,0,1-2.32,1.09h0a1.8,1.8,0,0,1-1.08-2.31h0l2.36-6.68a1.81,1.81,0,1,1,3.4,1.23h0ZM24.66,70.5a1.8,1.8,0,0,1-2.31,1.08h0a1.81,1.81,0,0,1-1.09-2.32h0l2.37-6.68a1.8,1.8,0,0,1,2.31-1.09h0A1.81,1.81,0,0,1,27,63.81h0Z" style="fill:#9cdcf8"/><path d="M20.94,19.43S3.26,16.65.36,32.06c-1.6,8.5,2.35,13.68,7.41,16.8a22.76,22.76,0,0,0,9.4,3.23h69.5a25.51,25.51,0,0,0,6.73-1.38c5-1.89,10.58-6.14,9.18-16.14C101,22.93,88.49,23.37,88.49,23.37a12.34,12.34,0,0,0-9.15-12c-6.57-2-10.83.85-10.83.85S60.87-.84,45,0C24,1.22,20.94,19.43,20.94,19.43Z" style="fill:#78a4d6"/><path d="M101.13,34.59c-2-10.45-14-9.92-14-9.92s.55-9-8.47-11.93C73.22,11,68,13.7,68,13.7S60.05.28,45.1,1.36C24.94,2.82,21.92,21.08,21.92,21.08S5,17.48,1.8,32.18c-3.44,15.94,15,18.44,15,18.44H49.38s7.13-.55,10-3.73c3.93-4.29,4.13-10.59-.49-14-4.17-3.05-9.24-2.38-12.79-1-1.44.54-1.58.75-1.76.71s-.53-.42.33-1.05a11.29,11.29,0,0,1,4.44-2c7.21-1.66,14,1.95,15.86,7.45a16.14,16.14,0,0,1-.47,11.76c-.5,1.13-.74,1.11-.72,1.51s.55.38.55.38H87.42S103.91,49.26,101.13,34.59Z" style="fill:#c0e7fa"/><path d="M49.37,50.61s7.13-.55,10-3.73A10.12,10.12,0,0,0,61.93,37,8.5,8.5,0,0,0,60.07,34a1,1,0,0,0-.21-.21l-.27-.26c-.22-.19-.46-.39-.7-.57a10.88,10.88,0,0,0-5-2h-.08c5.69,3.47,3.78,9.42-.07,11.54C50.67,44.09,44,44.4,42,44c-12.54-2.53-12.12-9.19-11.83-11.79.08-.7.51-.93.19-1.1s-1.26.49-1.67.8a8.52,8.52,0,0,0-3.57,8.26A19.66,19.66,0,0,1,11,38.72C4.48,35.28,3.88,28.33,3.84,27l-.18.29c-.17.31-.44.76-.74,1.4-.12.25-.22.51-.33.77a2,2,0,0,0-.1.26c-.12.29-.21.6-.31.91,0,.11-.07.23-.11.35-.09.3-.16.59-.23.9-.11.47-.2,1-.29,1.51s-.11.87-.15,1.28c0,0,0,.09,0,.14,0,.34,0,.68,0,1v.4c0,.23,0,.47,0,.71.78,11.66,15.39,13.64,15.39,13.64Zm52.07-13.39a18.87,18.87,0,0,0-.31-2.59c0-.21-.09-.41-.12-.59l0-.19c0-.12-.06-.23-.09-.35a10.84,10.84,0,0,0-3.61-5.65c-.42-.33-.85-.64-1.29-.92,0,0,3.72,11-9.67,14.77C81.59,43,70.57,43.29,65.74,39.93a16.11,16.11,0,0,1-1.18,8.75c-.5,1.13-.74,1.11-.73,1.51s.56.38.56.38H87.46S101.88,49.42,101.44,37.22Z" style="fill:#9cdcf8"/><path d="M42.07,10c0,3.32,4.18,6,9.33,6s9.32-2.7,9.32-6S56.55,4,51.4,4s-9.33,2.7-9.33,6Z" style="fill:#fff"/></g></g></svg>