<svg xmlns="http://www.w3.org/2000/svg" viewBox="0 0 103.78 77.97"><g id="图层_2" data-name="图层 2"><g id="图层_1-2" data-name="图层 1"><path d="M21.14,19.62S3.3,16.81.36,32.36c-1.61,8.58,2.38,13.81,7.48,17a23,23,0,0,0,9.49,3.25H87.5a25.33,25.33,0,0,0,6.79-1.39c5-1.91,10.68-6.2,9.26-16.29-1.64-11.75-14.22-11.31-14.22-11.31a12.46,12.46,0,0,0-9.24-12.08c-6.63-2-10.93.85-10.93.85S61.45-.85,45.37,0C24.19,1.24,21.14,19.62,21.14,19.62Z" style="fill:#78a4d6"/><path d="M102.09,34.92c-2-10.55-14.1-10-14.1-10s.56-9.1-8.55-12c-5.53-1.79-10.78,1-10.78,1S60.62.28,45.53,1.37c-20.35,1.48-23.4,19.91-23.4,19.91S5,17.64,1.82,32.48C-1.66,48.58,17,51.1,17,51.1H49.85s7.2-.56,10.12-3.76c4-4.33,4.17-10.69-.5-14.11-4.21-3.08-9.33-2.4-12.92-1-1.45.54-1.59.76-1.77.72s-.54-.42.33-1.06A11.55,11.55,0,0,1,49.6,29.8c7.28-1.67,14.13,2,16,7.52a16.28,16.28,0,0,1-.48,11.87c-.5,1.14-.74,1.12-.73,1.53s.56.38.56.38H88.25S104.89,49.72,102.09,34.92Z" style="fill:#c0e7fa"/><path d="M49.84,51.09S57,50.53,60,47.33a10.23,10.23,0,0,0,2.56-9.94,8.75,8.75,0,0,0-1.88-3.12l-.21-.21-.27-.26c-.23-.2-.47-.4-.71-.58a11.1,11.1,0,0,0-5.08-2h-.08c5.74,3.51,3.82,9.52-.07,11.65-3.07,1.69-9.76,2-11.87,1.57-12.66-2.56-12.24-9.28-11.94-11.9.07-.71.51-.94.19-1.12s-1.28.5-1.69.81a8.61,8.61,0,0,0-3.6,8.34,19.86,19.86,0,0,1-14.2-1.43c-6.59-3.48-7.2-10.49-7.23-11.8l-.19.3c-.17.31-.44.77-.74,1.42-.12.25-.23.51-.34.77,0,.08-.06.17-.1.26-.11.3-.21.61-.31.92,0,.11-.07.23-.11.36a8.46,8.46,0,0,0-.23.9c-.11.48-.21,1-.3,1.53s-.11.87-.14,1.29c0,.05,0,.09,0,.14,0,.35,0,.68,0,1v.41c0,.23,0,.47,0,.71.79,11.77,15.54,13.77,15.54,13.77ZM102.4,37.58a19.12,19.12,0,0,0-.31-2.62c0-.21-.09-.41-.12-.6l0-.19-.09-.36a10.93,10.93,0,0,0-3.65-5.7,14.55,14.55,0,0,0-1.3-.92s3.76,11.09-9.77,14.9c-4.75,1.34-15.88,1.61-20.75-1.78a16.32,16.32,0,0,1-1.2,8.83c-.51,1.14-.74,1.12-.73,1.53s.56.38.56.38H88.29S102.85,49.89,102.4,37.58Z" style="fill:#9cdcf8"/><path d="M42.47,10.1c0,3.36,4.21,6.08,9.41,6.08s9.42-2.72,9.42-6.08S57.08,4,51.88,4s-9.41,2.72-9.41,6.07Z" style="fill:#fff"/><path d="M97.9,75.39A2.57,2.57,0,0,1,95.32,78H8.62A2.58,2.58,0,0,1,6,75.4H6a2.58,2.58,0,0,1,2.58-2.57h86.7a2.57,2.57,0,0,1,2.58,2.57ZM32.39,59.08a2.59,2.59,0,0,1-2.58,2.58H8.62A2.59,2.59,0,0,1,6,59.08H6A2.58,2.58,0,0,1,8.62,56.5H29.81a2.58,2.58,0,0,1,2.58,2.58ZM95.32,56.5H41.38a2.58,2.58,0,0,0,0,5.16H95.32a2.58,2.58,0,1,0,0-5.16Z" style="fill:#9cdcf8"/></g></g></svg>