<svg xmlns="http://www.w3.org/2000/svg" viewBox="0 0 104.92 76.29"><g id="图层_2" data-name="图层 2"><g id="图层_1-2" data-name="图层 1"><path d="M21.38,19.83S3.33,17,.37,32.72c-1.63,8.67,2.4,14,7.56,17.15a23.34,23.34,0,0,0,9.59,3.29H88.46a25.93,25.93,0,0,0,6.87-1.41c5.09-1.93,10.8-6.26,9.36-16.47C103,23.4,90.31,23.85,90.31,23.85A12.59,12.59,0,0,0,81,11.63c-6.7-2-11,.87-11,.87S62.12-.86,45.87,0C24.45,1.25,21.38,19.83,21.38,19.83Z" style="fill:#78a4d6"/><path d="M103.21,35.3C101.19,24.64,89,25.18,89,25.18S89.52,16,80.31,13c-5.58-1.81-10.9,1-10.9,1S61.29.28,46,1.39C25.46,2.88,22.37,21.52,22.37,21.52S5.09,17.84,1.84,32.84c-3.52,16.28,15.3,18.83,15.3,18.83H50.39s7.29-.57,10.24-3.81c4-4.38,4.21-10.81-.5-14.26-4.26-3.12-9.43-2.43-13.06-1.06-1.47.55-1.61.77-1.8.73s-.54-.43.34-1.07a11.47,11.47,0,0,1,4.53-2.07c7.36-1.7,14.29,2,16.19,7.6a16.42,16.42,0,0,1-.48,12c-.51,1.16-.75,1.13-.74,1.55s.57.39.57.39H89.22S106.05,50.27,103.21,35.3Z" style="fill:#c0e7fa"/><path d="M50.38,51.65s7.29-.56,10.24-3.8A10.32,10.32,0,0,0,63.2,37.8a8.67,8.67,0,0,0-1.89-3.15,1.45,1.45,0,0,0-.22-.21,3.44,3.44,0,0,0-.27-.27c-.23-.2-.47-.4-.72-.58A11.2,11.2,0,0,0,55,31.52h-.08c5.8,3.54,3.86,9.61-.07,11.77-3.1,1.71-9.87,2-12,1.59C30,42.29,30.44,35.5,30.74,32.85c.08-.72.52-1,.19-1.13s-1.29.5-1.71.82A8.73,8.73,0,0,0,25.58,41a20.08,20.08,0,0,1-14.35-1.45C4.57,36,4,28.91,3.92,27.59l-.19.3c-.17.32-.45.78-.75,1.44-.12.25-.23.51-.34.77,0,.09-.06.18-.1.27-.12.3-.21.61-.31.93q-.06.16-.12.36c-.09.3-.16.6-.23.92-.11.48-.21,1-.3,1.54s-.12.88-.15,1.31c0,0,0,.09,0,.14,0,.35,0,.69,0,1V37c0,.23,0,.48,0,.72.81,11.9,15.71,13.92,15.71,13.92ZM103.53,38a19.76,19.76,0,0,0-.32-2.65c0-.21-.09-.41-.12-.6l0-.19c0-.13-.06-.23-.09-.36a11,11,0,0,0-3.69-5.77A13.61,13.61,0,0,0,98,27.49s3.81,11.21-9.87,15.06c-4.81,1.36-16.06,1.63-21-1.8a16.57,16.57,0,0,1-1.21,8.93c-.52,1.16-.75,1.13-.74,1.54s.56.39.56.39H89.26S104,50.43,103.53,38Z" style="fill:#9cdcf8"/><path d="M42.94,10.21c0,3.4,4.26,6.14,9.51,6.14S62,13.61,62,10.21s-4.26-6.14-9.52-6.14-9.51,2.75-9.51,6.14Z" style="fill:#fff"/><path d="M68.77,57.14c-.32,3-4.28,9.52-4.28,13.71,0,3,1.92,5.44,4.28,5.44s4.29-2.43,4.29-5.44C73.06,66.48,69,60.17,68.77,57.14Zm-32.45,0C36,60.09,32,66.66,32,70.85c0,3,1.92,5.44,4.29,5.44s4.28-2.43,4.28-5.44C40.6,66.48,36.59,60.17,36.32,57.14Z" style="fill:#9cdcf8"/></g></g></svg>