<svg xmlns="http://www.w3.org/2000/svg" viewBox="0 0 104.41 94.38"><g id="图层_2" data-name="图层 2"><g id="图层_1-2" data-name="图层 1"><path d="M104.41,24.47c-6.22.23-8-1.34-5.78-5-4.26-.52-4.35-2.93-.3-7.64-5.5,2.9-7.82,2.27-7.37-2-4,1.39-5.17-.74-3.58-6.74-3.71,5-6.07,5.44-7.5,1.41-3.06,3-5,1.59-6.16-4.53-1.17,6.12-3.09,7.53-6.16,4.53-1.44,4-3.8,3.59-7.5-1.42,1.62,6,.5,8.13-3.58,6.74.45,4.26-1.87,4.89-7.37,2,4,4.72,4,7.12-.29,7.64,2.25,3.66.44,5.21-5.79,5,5.7,2.49,6.66,4.7,3,7,3.62,2.31,2.65,4.52-3,7,6.22-.22,8,1.34,5.79,5,4.25.51,4.34,2.92.29,7.64,5.5-2.91,7.82-2.28,7.37,2,4.05-1.39,5.17.74,3.58,6.74,3.71-5,6.07-5.44,7.5-1.41,3.07-3,5-1.59,6.16,4.53,1.17-6.12,3.1-7.53,6.16-4.53,1.45-4,3.81-3.6,7.5,1.41-1.62-6-.48-8.13,3.58-6.74-.45-4.26,1.87-4.89,7.37-2-4-4.72-4-7.13.3-7.64-2.26-3.66-.45-5.21,5.78-5-5.7-2.49-6.66-4.7-3-7C97.76,29.17,98.71,27,104.41,24.47ZM73.73,57A36.83,36.83,0,0,1,48.27,31.48,36.84,36.84,0,0,1,73.73,6,36.83,36.83,0,0,1,99.2,31.48,36.85,36.85,0,0,1,73.73,57Z" style="fill:#f9a433"/><path d="M99.78,31.48c0-.28-.94-2.11-1-2.38a11.07,11.07,0,0,0-.59-3l.2-.21-.27-.1A25,25,0,0,0,93.45,16a2.46,2.46,0,0,0,.09-.29l-.3,0A25.22,25.22,0,0,0,84.76,9a1.5,1.5,0,0,1,0-.29,2.07,2.07,0,0,0-.25.15c-3.21-1.53-5.09-2.4-8.88-2.42,0-.08-1.81-1.46-1.86-1.54,0,.08-2,1.46-2.1,1.54-3.78,0-5.43.89-8.64,2.42l-.25-.15c0,.09,0,.18,0,.29a25.09,25.09,0,0,0-8.47,6.76l-.31,0c0,.09.06.19.1.29a25,25,0,0,0-4.72,9.76l-.27.1.2.21a12.57,12.57,0,0,0-.6,3.31c0,.23-1,1.88-1,2.12s1,2.11,1,2.32a10.79,10.79,0,0,0,.6,3.11l-.2.21.27.11A24.73,24.73,0,0,0,54,47c0,.1-.06.2-.1.3l.31,0A25.39,25.39,0,0,0,62.72,54a1.43,1.43,0,0,1,0,.29c.08-.06.17-.09.25-.15,3.21,1.53,4.46,2.39,8.23,2.42,0,.08,2.46,1.45,2.5,1.53,0-.08,2.08-1.45,2.14-1.53,3.79,0,5.4-.89,8.61-2.42l.25.15,0-.29a25.5,25.5,0,0,0,8.48-6.78c.09,0,.2,0,.3,0s-.05-.19-.09-.3a25,25,0,0,0,4.72-9.75l.27-.11-.2-.21a10.72,10.72,0,0,0,.6-3c0-.25.94-2.15.94-2.39Zm-26,22.45A22.45,22.45,0,1,1,96.18,31.48,22.45,22.45,0,0,1,73.73,53.93Z" style="fill:#f9a433"/><path d="M53.8,31.48A19.93,19.93,0,1,0,73.73,11.55,19.93,19.93,0,0,0,53.8,31.48Z" style="fill:#f58a33"/><path d="M73.73,11.55a19.93,19.93,0,0,0-19.32,15,19.93,19.93,0,0,0,38.64,0A19.94,19.94,0,0,0,73.73,11.55Z" style="fill:#f79a4d"/><path d="M65.88,19.84c0,3.93,3.93,7.12,8.78,7.12s8.77-3.19,8.77-7.12-3.93-7.13-8.77-7.13S65.88,15.9,65.88,19.84Z" style="fill:#f4b04e"/><path d="M71.57,16.1c0,1.33,1.62,2.4,3.62,2.4s3.62-1.07,3.62-2.4-1.62-2.41-3.62-2.41-3.62,1.08-3.62,2.41Z" style="fill:#ffeec5"/><path d="M20.18,40.56S3.14,37.88.35,52.72c-1.54,8.19,2.26,13.19,7.13,16.19A22,22,0,0,0,16.54,72h67A24.44,24.44,0,0,0,90,70.69c4.82-1.83,10.2-5.91,8.85-15.55-1.57-11.22-13.58-10.8-13.58-10.8a11.89,11.89,0,0,0-8.82-11.53c-6.33-1.9-10.43.82-10.43.82S58.65,21,43.31,21.87C23.08,23,20.18,40.56,20.18,40.56Z" style="fill:#78a4d6"/><path d="M97.43,55.16C95.53,45.09,84,45.61,84,45.61s.53-8.7-8.16-11.5A14.71,14.71,0,0,0,65.53,35S57.86,22.1,43.45,23.14c-19.41,1.42-22.33,19-22.33,19S4.81,38.68,1.74,52.84C-1.58,68.21,16.19,70.62,16.19,70.62H47.58s6.88-.54,9.66-3.6c3.78-4.14,4-10.21-.48-13.47-4-2.94-8.9-2.29-12.33-1-1.39.52-1.51.72-1.69.69s-.51-.41.32-1a10.77,10.77,0,0,1,4.27-2c7-1.6,13.48,1.87,15.28,7.17a15.51,15.51,0,0,1-.45,11.33c-.49,1.09-.72,1.07-.71,1.46s.54.38.54.38H84.22s15.89-1.33,13.21-15.47Z" style="fill:#c0e7fa"/><path d="M47.57,70.6s6.88-.53,9.66-3.59a9.79,9.79,0,0,0,2.44-9.49,8.48,8.48,0,0,0-1.79-3,1.89,1.89,0,0,0-.2-.2,3.08,3.08,0,0,0-.26-.24c-.21-.19-.44-.38-.67-.56a10.51,10.51,0,0,0-4.85-1.95h-.07c5.48,3.34,3.64,9.07-.07,11.12-2.93,1.61-9.32,1.9-11.33,1.49C28.35,61.76,28.75,55.35,29,52.85c.07-.68.49-.9.17-1.06s-1.22.47-1.61.77a8.18,8.18,0,0,0-3.43,7.95,18.93,18.93,0,0,1-13.55-1.36c-6.32-3.31-6.91-10-6.94-11.24l-.18.28c-.16.29-.43.73-.71,1.35-.11.24-.21.49-.32.74a2.34,2.34,0,0,1-.09.24c-.11.28-.2.59-.29.88,0,.11-.07.22-.11.34-.08.28-.15.57-.21.86-.1.46-.2.93-.28,1.46s-.1.83-.14,1.23c0,.05,0,.08,0,.13,0,.33,0,.65,0,1v.38c0,.23,0,.46,0,.68.76,11.24,14.83,13.14,14.83,13.14ZM97.74,57.7a19.14,19.14,0,0,0-.29-2.5c0-.2-.09-.39-.12-.58l0-.17c0-.12-.05-.22-.08-.34a10.42,10.42,0,0,0-3.48-5.44,13.51,13.51,0,0,0-1.25-.89S96.08,58.36,83.16,62c-4.54,1.28-15.16,1.54-19.81-1.7a15.64,15.64,0,0,1-1.14,8.44c-.49,1.08-.71,1.06-.7,1.46s.54.37.54.37H84.28S98.16,69.45,97.74,57.7Z" style="fill:#9cdcf8"/><path d="M40.53,31.48c0,3.2,4,5.8,9,5.8s9-2.59,9-5.79h0c0-3.2-4-5.79-9-5.79s-9,2.59-9,5.79Z" style="fill:#fff"/><path d="M59.78,88.26l-1.37-.8,1.28,0a.56.56,0,0,0,.52-.59.55.55,0,0,0-.54-.51l-3.11,0-2.11-1.23,2.24-1.3,2.57.52a.55.55,0,0,0,.24-1.07h0L58.13,83l1.67-1a1.1,1.1,0,1,0-1.1-1.91l-1.39.8.63-1.06a.55.55,0,0,0-.94-.56l-1.62,2.73-2,1.17V80.52L55,78.17a.55.55,0,0,0-.15-.75.54.54,0,0,0-.74.12l-.77,1.09V77.05a1.11,1.11,0,0,0-1.11-1.11,1.1,1.1,0,0,0-1.11,1.11v1.58l-.76-1.07a.54.54,0,0,0-.77-.11.56.56,0,0,0-.13.74l1.65,2.32v2.7l-2.44-1.37-.95-2.42a.53.53,0,0,0-.71-.3.55.55,0,0,0-.31.71L47.18,81l-1.38-.8a1.11,1.11,0,1,0-1.1,1.92l1.41.81-1.43,0a.54.54,0,0,0-.49.6.55.55,0,0,0,.54.5L47.89,84l2.18,1.25-2.34,1.34-2.91-.15a.55.55,0,0,0-.56.53.53.53,0,0,0,.5.55l1.23.07-1.28.74a1.11,1.11,0,0,0,1.1,1.92l1.45-.83-.54,1.29a.55.55,0,0,0,.32.7.53.53,0,0,0,.69-.29l1.07-2.6,2.35-1.36v3.13l-1.63,2.28a.54.54,0,0,0,.15.76.54.54,0,0,0,.73-.13l.73-1v1.15a1.11,1.11,0,0,0,2.22,0V92.05l.79,1.14a.55.55,0,0,0,.9-.64l-1.69-2.38V87.11l2.31,1.33.92,2.5a.55.55,0,0,0,1-.37l-.47-1.26,1.56.9a1.09,1.09,0,0,0,1.5-.41,1.14,1.14,0,0,0-.42-1.54Z" style="fill:#9cdcf8"/><path d="M56.35,86.27l-1.9-1.1,1.9-1.11a4.2,4.2,0,0,0-1.11-1.91l-1.92,1.09V81.05a4.11,4.11,0,0,0-2.2,0v2.21L49.2,82.15a4.2,4.2,0,0,0-1.11,1.91L50,85.17,48.1,86.28a4.38,4.38,0,0,0,1.11,1.92l1.92-1.11V89.3a4.36,4.36,0,0,0,2.21,0V87.09l1.9,1.1A4.19,4.19,0,0,0,56.35,86.27Z" style="fill:#c0e7fa"/></g></g></svg>