<svg xmlns="http://www.w3.org/2000/svg" viewBox="0 0 104.22 98.26"><g id="图层_2" data-name="图层 2"><g id="图层_1-2" data-name="图层 1"><path d="M104.22,24.43c-6.2.22-8-1.34-5.77-5-4.24-.51-4.34-2.92-.29-7.63-5.49,2.91-7.81,2.28-7.36-2-4,1.39-5.16-.73-3.58-6.73-3.69,5-6,5.44-7.48,1.41-3.06,3-5,1.59-6.15-4.52-1.16,6.11-3.09,7.52-6.14,4.52C66,8.56,63.65,8.1,60,3.11c1.61,6,.49,8.12-3.58,6.73.46,4.26-1.86,4.89-7.36,2,4,4.71,4,7.1-.29,7.63,2.25,3.65.45,5.21-5.77,5,5.69,2.48,6.65,4.69,3,7,3.62,2.31,2.65,4.52-3,7,6.2-.22,8,1.34,5.77,5,4.25.51,4.34,2.91.29,7.63,5.5-2.91,7.82-2.28,7.36,2,4-1.39,5.17.73,3.58,6.73,3.7-5,6.05-5.44,7.49-1.41,3-3,5-1.59,6.14,4.52,1.17-6.11,3.09-7.52,6.15-4.52,1.44-4,3.8-3.6,7.48,1.41-1.61-6-.47-8.12,3.58-6.73-.45-4.26,1.87-4.89,7.36-2-4-4.72-4-7.12.29-7.63-2.25-3.65-.44-5.2,5.77-5-5.69-2.48-6.64-4.69-3-7C97.58,29.12,98.53,26.91,104.22,24.43ZM73.6,56.84A36.77,36.77,0,0,1,48.18,31.42,36.77,36.77,0,0,1,73.6,6,36.73,36.73,0,0,1,99,31.42,36.73,36.73,0,0,1,73.6,56.84Z" style="fill:#f9a433"/><path d="M99.61,31.42c0-.28-1-2.11-1-2.37a11.06,11.06,0,0,0-.58-3l.2-.21L98,25.7A25.05,25.05,0,0,0,93.29,16l.09-.29-.3,0a25.28,25.28,0,0,0-8.47-6.75,1.43,1.43,0,0,1,0-.29c-.09.06-.17.09-.25.15-3.2-1.53-5.08-2.39-8.86-2.41,0-.08-1.81-1.46-1.85-1.54-.05.08-2.06,1.46-2.1,1.54-3.78,0-5.43.88-8.63,2.41l-.25-.15,0,.29a25.24,25.24,0,0,0-8.46,6.75l-.3,0a2.46,2.46,0,0,1,.09.29,25.08,25.08,0,0,0-4.71,9.74l-.26.1.19.21a13,13,0,0,0-.59,3.3c0,.24-1,1.88-1,2.12s1,2.1,1,2.31a10.78,10.78,0,0,0,.59,3.12l-.19.21.26.1a24.81,24.81,0,0,0,4.71,9.74c0,.09,0,.2-.09.29l.3,0a25.24,25.24,0,0,0,8.46,6.75,1.43,1.43,0,0,1,0,.29c.09-.06.17-.09.25-.15,3.2,1.52,4.45,2.39,8.22,2.41,0,.08,2.45,1.45,2.49,1.53.05-.08,2.08-1.45,2.14-1.53,3.78,0,5.39-.89,8.59-2.41l.25.15,0-.29a25.31,25.31,0,0,0,8.47-6.77,2.77,2.77,0,0,0,.3,0l-.09-.29A25.15,25.15,0,0,0,98,37.15l.27-.11c-.07-.07-.13-.14-.2-.2a10.44,10.44,0,0,0,.59-3.05c0-.22,1-2.13,1-2.37Zm-26,22.42A22.42,22.42,0,1,1,96,31.42,22.41,22.41,0,0,1,73.59,53.84Z" style="fill:#f9a433"/><path d="M53.7,31.42A19.9,19.9,0,1,0,73.59,11.53,19.9,19.9,0,0,0,53.7,31.42Z" style="fill:#f58a33"/><path d="M73.59,11.53a19.89,19.89,0,0,0-19.28,15,19.9,19.9,0,0,0,38.57,0,19.9,19.9,0,0,0-19.29-15Z" style="fill:#f79a4d"/><path d="M65.76,19.8c0,3.93,3.92,7.11,8.75,7.11s8.76-3.18,8.76-7.11-3.92-7.11-8.76-7.11S65.76,15.87,65.76,19.8Z" style="fill:#f4b04e"/><path d="M71.45,16.08c0,1.33,1.62,2.4,3.61,2.4s3.62-1.07,3.62-2.4h0c0-1.33-1.62-2.4-3.62-2.4s-3.61,1.07-3.61,2.4Z" style="fill:#ffeec5"/><path d="M20.14,40.48S3.14,37.81.34,52.62C-1.19,60.81,2.62,65.79,7.48,68.8a22,22,0,0,0,9,3.1H83.35a24.33,24.33,0,0,0,6.47-1.33c4.81-1.82,10.18-5.9,8.83-15.52C97.09,43.85,85.1,44.27,85.1,44.27a11.87,11.87,0,0,0-8.8-11.5c-6.32-1.91-10.42.81-10.42.81S58.54,21,43.23,21.84C23,23,20.14,40.48,20.14,40.48Z" style="fill:#78a4d6"/><path d="M97.26,55.07c-1.9-10-13.43-9.54-13.43-9.54s.54-8.67-8.14-11.47A14.66,14.66,0,0,0,65.42,35s-7.66-12.91-22-11.87c-19.39,1.4-22.29,19-22.29,19S4.8,38.61,1.73,52.75C-1.58,68.08,16.15,70.49,16.15,70.49H47.5s6.86-.54,9.64-3.59c3.78-4.13,4-10.2-.48-13.45-4-2.94-8.88-2.28-12.3-1a16.16,16.16,0,0,1-1.69.69c-.13,0-.51-.41.31-1a10.64,10.64,0,0,1,4.27-1.95c6.94-1.6,13.46,1.86,15.25,7.16a15.46,15.46,0,0,1-.45,11.31c-.49,1.08-.71,1.06-.7,1.46s.54.37.54.37H84.08s15.85-1.33,13.18-15.43Z" style="fill:#c0e7fa"/><path d="M47.48,70.48s6.87-.54,9.65-3.6a9.75,9.75,0,0,0,2.44-9.46,8.39,8.39,0,0,0-1.79-3,1.89,1.89,0,0,0-.2-.2L57.33,54c-.21-.19-.45-.37-.68-.56a10.54,10.54,0,0,0-4.84-1.95h-.07c5.47,3.34,3.64,9.06-.07,11.1-2.93,1.61-9.3,1.9-11.31,1.5C28.3,61.65,28.7,55.25,29,52.75c.07-.67.49-.9.18-1.06s-1.23.48-1.61.77a8.16,8.16,0,0,0-3.43,7.94A18.93,18.93,0,0,1,10.6,59c-6.3-3.3-6.89-10-6.92-11.22l-.18.28c-.16.29-.43.73-.71,1.35-.1.23-.21.49-.31.74,0,.08-.06.16-.1.24-.1.28-.2.58-.29.88,0,.1-.07.22-.1.33a6.48,6.48,0,0,0-.21.87c-.11.45-.2.92-.28,1.45s-.11.83-.14,1.23c0,.05,0,.08,0,.13,0,.32,0,.65,0,1v.39c0,.22,0,.45,0,.68.76,11.21,14.81,13.11,14.81,13.11H47.52v0ZM97.55,57.6a17.26,17.26,0,0,0-.29-2.49c0-.2-.08-.39-.11-.57l0-.18c0-.12-.06-.22-.08-.34a10.45,10.45,0,0,0-3.48-5.43,12.16,12.16,0,0,0-1.24-.89S95.9,58.27,83,61.9c-4.53,1.29-15.13,1.54-19.77-1.69a15.76,15.76,0,0,1-1.13,8.42c-.49,1.09-.72,1.06-.7,1.46s.53.37.53.37H84.12S98,69.32,97.55,57.6Z" style="fill:#9cdcf8"/><path d="M40.47,31.42c0,3.2,4,5.79,9,5.79s9-2.59,9-5.78h0c0-3.19-4-5.78-9-5.78s-9,2.59-9,5.78Z" style="fill:#fff"/><path d="M68.5,79.19c-.32,2.93-4.27,9.48-4.27,13.65,0,3,1.91,5.42,4.27,5.42s4.26-2.42,4.26-5.42C72.76,88.49,68.77,82.19,68.5,79.19Zm-32.33,0c-.31,2.93-4.26,9.48-4.26,13.65,0,3,1.91,5.42,4.26,5.42s4.27-2.42,4.27-5.42C40.44,88.49,36.44,82.19,36.17,79.19Z" style="fill:#9cdcf8"/></g></g></svg>