<svg xmlns="http://www.w3.org/2000/svg" viewBox="0 0 102.41 76.96"><g id="图层_2" data-name="图层 2"><g id="图层_1-2" data-name="图层 1"><path d="M20.87,19.36S3.25,16.59.36,31.93C-1.23,40.41,2.7,45.57,7.74,48.68a22.73,22.73,0,0,0,9.36,3.21H86.35a25.08,25.08,0,0,0,6.7-1.37c5-1.89,10.54-6.12,9.14-16.08-1.61-11.6-14-11.16-14-11.16A12.3,12.3,0,0,0,79,11.36c-6.55-2-10.79.84-10.79.84S60.64-.84,44.78,0C23.87,1.22,20.87,19.36,20.87,19.36Z" style="fill:#78a4d6"/><path d="M100.75,34.46c-2-10.4-13.92-9.88-13.92-9.88s.55-9-8.43-11.88c-5.46-1.77-10.64,1-10.64,1S59.83.28,44.94,1.36C24.85,2.81,21.83,21,21.83,21S5,17.41,1.79,32.06c-3.43,15.88,15,18.37,15,18.37H49.19s7.11-.55,10-3.71c3.91-4.28,4.12-10.55-.49-13.92-4.15-3-9.2-2.37-12.75-1-1.43.54-1.57.74-1.75.71s-.53-.42.33-1a11.17,11.17,0,0,1,4.43-2c7.18-1.65,13.94,1.94,15.8,7.42a16.09,16.09,0,0,1-.47,11.72c-.5,1.13-.74,1.1-.72,1.5s.55.38.55.38h23s16.43-1.36,13.66-16Z" style="fill:#c0e7fa"/><path d="M49.18,50.42s7.11-.55,10-3.71a10.05,10.05,0,0,0,2.52-9.81,8.48,8.48,0,0,0-1.85-3.07,1.34,1.34,0,0,0-.2-.21l-.27-.26c-.22-.19-.46-.39-.7-.57a10.94,10.94,0,0,0-5-2h-.07c5.66,3.46,3.76,9.39-.07,11.5-3,1.66-9.64,2-11.72,1.54C29.3,41.28,29.72,34.65,30,32.06c.07-.7.5-.93.18-1.1s-1.25.49-1.66.8A8.5,8.5,0,0,0,25,40a19.65,19.65,0,0,1-14-1.41c-6.49-3.43-7.1-10.36-7.13-11.64l-.19.29c-.17.3-.44.76-.73,1.39-.12.25-.22.51-.33.76a2.77,2.77,0,0,0-.1.26c-.12.29-.21.6-.31.91,0,.11-.07.23-.11.35a9.08,9.08,0,0,0-.22.9c-.12.46-.21.95-.3,1.51s-.11.85-.14,1.27c0,.05,0,.09,0,.13,0,.35,0,.68,0,1v.4c0,.23,0,.47,0,.7.79,11.63,15.34,13.6,15.34,13.6Zm51.88-13.33a20.34,20.34,0,0,0-.31-2.59c0-.21-.09-.41-.12-.59l0-.18c0-.13-.06-.23-.09-.36a10.67,10.67,0,0,0-3.6-5.62,13.1,13.1,0,0,0-1.29-.92s3.72,11-9.63,14.71c-4.69,1.32-15.68,1.59-20.48-1.75a16.17,16.17,0,0,1-1.18,8.71c-.51,1.12-.74,1.1-.73,1.5s.56.38.56.38h23s14.37-1.15,13.93-13.29Z" style="fill:#9cdcf8"/><path d="M41.91,10c0,3.31,4.16,6,9.29,6s9.29-2.68,9.29-6S56.34,4,51.2,4s-9.29,2.68-9.29,6Z" style="fill:#fff"/><path d="M39.86,71l-1.35-.79,1.26,0a.53.53,0,0,0,.5-.56.55.55,0,0,0-.52-.51l-3,0L34.64,68l2.19-1.27,2.51.51a.54.54,0,0,0,.65-.4.53.53,0,0,0-.4-.64h0l-1.32-.27L39.87,65a1.08,1.08,0,0,0,.39-1.48,1.07,1.07,0,0,0-1.47-.39l-1.36.78.61-1a.53.53,0,0,0-.92-.54h0L35.53,65l-2,1.14V63.45l1.63-2.29a.53.53,0,0,0-.87-.62l-.76,1.06V60.07a1.08,1.08,0,1,0-2.16,0v1.54l-.74-1a.53.53,0,0,0-.75-.11.54.54,0,0,0-.12.73l1.61,2.27V66.1L29,64.72l-.93-2.36a.53.53,0,0,0-1,.39l.44,1.11-1.35-.77A1.08,1.08,0,1,0,25.09,65h0l1.36.79-1.4,0a.54.54,0,0,0-.48.58.53.53,0,0,0,.53.49l3.09-.11L30.31,68,28,69.3l-2.84-.16a.55.55,0,0,0-.55.53.54.54,0,0,0,.49.54l1.2.07L25.08,71a1.08,1.08,0,0,0,1.09,1.87l1.41-.82-.53,1.27a.54.54,0,0,0,1,.41l1.05-2.55,2.29-1.33v3.06L29.8,75.15a.54.54,0,0,0,.88.61l.71-1v1.12a1.08,1.08,0,0,0,2.16,0h0V74.69l.79,1.1a.53.53,0,0,0,.75.11.54.54,0,0,0,.12-.73l-1.66-2.33v-3l2.26,1.31.9,2.44a.54.54,0,1,0,1-.37L37.26,72l1.52.88a1.08,1.08,0,0,0,1.48-.4A1.07,1.07,0,0,0,39.86,71Z" style="fill:#9cdcf8"/><path d="M36.5,69.05,34.64,68,36.5,66.9A4.1,4.1,0,0,0,35.42,65L33.55,66.1V63.94a4.16,4.16,0,0,0-2.16,0V66.1L29.52,65a4.17,4.17,0,0,0-1.09,1.87L30.31,68l-1.88,1.07a4.28,4.28,0,0,0,1.08,1.88l1.88-1.08V72a4.16,4.16,0,0,0,2.16,0V69.85l1.87,1.08A4.1,4.1,0,0,0,36.5,69.05Z" style="fill:#c0e7fa"/><path d="M77.12,71l-1.36-.79,1.26,0a.52.52,0,0,0,.5-.56.53.53,0,0,0-.52-.51l-3,0L71.89,68l2.19-1.27,2.52.51a.53.53,0,0,0,.25-1h0l-1.32-.27L77.12,65A1.08,1.08,0,1,0,76,63.09l-1.36.78.62-1a.53.53,0,0,0-.19-.73.54.54,0,0,0-.74.19L72.78,65l-2,1.14V63.45l1.63-2.29a.53.53,0,0,0-.15-.74.52.52,0,0,0-.72.12l-.76,1.06V60.07a1.08,1.08,0,1,0-2.16,0h0v1.54l-.74-1a.53.53,0,0,0-.75-.11.55.55,0,0,0-.13.73l1.62,2.27V66.1l-2.39-1.38-.93-2.36a.53.53,0,0,0-.69-.3.54.54,0,0,0-.31.69l.44,1.11-1.34-.77A1.08,1.08,0,1,0,62.34,65l1.37.79-1.4,0a.54.54,0,0,0-.48.58.52.52,0,0,0,.52.49l3.1-.11L67.57,68,65.29,69.3l-2.85-.16a.54.54,0,0,0-.54.53.53.53,0,0,0,.49.54l1.2.07L62.34,71a1.08,1.08,0,0,0,1.08,1.87h0l1.41-.82-.52,1.27a.54.54,0,0,0,.31.69.53.53,0,0,0,.68-.28l1-2.55,2.3-1.33v3.06l-1.59,2.24a.53.53,0,0,0,.87.61l.72-1v1.12a1.08,1.08,0,0,0,2.16,0V74.69l.78,1.1a.53.53,0,0,0,.75.11.55.55,0,0,0,.13-.73l-1.66-2.33v-3l2.26,1.31L74,73.6a.53.53,0,1,0,1-.37h0L74.52,72l1.52.88A1.08,1.08,0,0,0,77.12,71Z" style="fill:#9cdcf8"/><path d="M73.76,69.05,71.89,68l1.87-1.07A4.19,4.19,0,0,0,72.68,65L70.81,66.1V63.94a4.16,4.16,0,0,0-2.16,0V66.1L66.78,65a4.17,4.17,0,0,0-1.09,1.87L67.56,68l-1.87,1.07a4.19,4.19,0,0,0,1.08,1.88l1.88-1.08V72a4.16,4.16,0,0,0,2.16,0V69.85l1.87,1.08A4.19,4.19,0,0,0,73.76,69.05Z" style="fill:#c0e7fa"/><path d="M58.49,66.31l-1.35-.78,1.25,0a.55.55,0,0,0,.51-.57.53.53,0,0,0-.53-.5l-3,0-2.06-1.2L55.46,62l2.51.5a.53.53,0,0,0,.64-.39.53.53,0,0,0-.39-.65h0l-1.32-.26,1.64-.95a1.08,1.08,0,0,0-1.09-1.87l-1.35.78.61-1a.54.54,0,0,0-.21-.73.53.53,0,0,0-.71.18l-1.59,2.68-2,1.14V58.77l1.63-2.3a.54.54,0,0,0-.88-.62l-.75,1.07V55.38a1.09,1.09,0,0,0-2.17,0v1.55l-.74-1a.53.53,0,0,0-.87.62L50,58.78v2.63L47.63,60l-.93-2.36a.53.53,0,0,0-.69-.3.53.53,0,0,0-.3.69h0l.43,1.11L44.8,58.4a1.08,1.08,0,1,0-1.09,1.87l1.37.79-1.4,0a.54.54,0,0,0-.48.59.52.52,0,0,0,.52.48l3.1-.11,2.12,1.22-2.28,1.32-2.85-.15a.53.53,0,0,0-.54.52.55.55,0,0,0,.49.55l1.2.06-1.25.72a1.08,1.08,0,0,0,1.08,1.87l1.42-.81-.53,1.26a.56.56,0,0,0,.31.7.54.54,0,0,0,.68-.29l1.06-2.55L50,65.17v3l-1.59,2.24a.54.54,0,0,0,.88.62l.71-1V71.2a1.08,1.08,0,1,0,2.16,0V70L53,71.11a.54.54,0,0,0,.88-.62l-1.66-2.34v-3l2.26,1.3.9,2.45a.54.54,0,0,0,1-.37l-.46-1.24,1.52.88a1.08,1.08,0,0,0,1.2-1.8Z" style="fill:#9cdcf8"/><path d="M55.13,64.37l-1.86-1.08,1.86-1.08a4.15,4.15,0,0,0-1.08-1.87l-1.87,1.08V59.26a4.16,4.16,0,0,0-2.16,0v2.16l-1.87-1.08a4.12,4.12,0,0,0-1.09,1.87l1.87,1.08-1.87,1.08a4.15,4.15,0,0,0,1.08,1.87L50,65.16v2.16a4.16,4.16,0,0,0,2.16,0V65.16l1.87,1.08a4.15,4.15,0,0,0,1.08-1.87Z" style="fill:#c0e7fa"/><path d="M21.23,66.31l-1.35-.78,1.26,0a.54.54,0,0,0,.5-.57.53.53,0,0,0-.52-.5l-3,0L16,63.29,18.2,62l2.51.5a.53.53,0,1,0,.25-1h0l-1.31-.26,1.63-.95a1.08,1.08,0,1,0-1.08-1.87h0l-1.36.78.61-1a.54.54,0,0,0-.2-.73.54.54,0,0,0-.72.18L16.9,60.28l-2,1.14V58.77l1.63-2.3a.54.54,0,0,0-.88-.62l-.75,1.07V55.38a1.08,1.08,0,1,0-2.16,0h0v1.55l-.74-1a.54.54,0,0,0-.88.62l1.62,2.28v2.63L10.38,60l-.93-2.36a.54.54,0,0,0-.7-.3.53.53,0,0,0-.3.69h0l.44,1.11L7.54,58.4a1.08,1.08,0,1,0-1.08,1.87l1.36.79-1.39,0a.54.54,0,0,0-.49.59.53.53,0,0,0,.53.48l3.1-.11,2.12,1.22L9.4,64.61l-2.84-.15A.54.54,0,0,0,6,65a.55.55,0,0,0,.49.55l1.21.06-1.25.72a1.08,1.08,0,1,0,1.08,1.87L9,67.37l-.52,1.26a.54.54,0,0,0,1,.41l1.05-2.55,2.29-1.32v3l-1.58,2.24a.52.52,0,0,0,.15.74.53.53,0,0,0,.72-.12l.71-1V71.2a1.09,1.09,0,0,0,2.17,0V70l.78,1.11a.53.53,0,0,0,.87-.62l-1.65-2.34v-3l2.25,1.3.91,2.45a.53.53,0,0,0,1-.37l-.46-1.24,1.52.88a1.08,1.08,0,0,0,1.2-1.8Z" style="fill:#9cdcf8"/><path d="M17.88,64.37,16,63.29l1.87-1.08a4.25,4.25,0,0,0-1.08-1.87l-1.87,1.08V59.26a4.2,4.2,0,0,0-2.17,0v2.16l-1.87-1.08A4.21,4.21,0,0,0,9.8,62.21l1.88,1.08L9.8,64.37a4.17,4.17,0,0,0,1.09,1.87l1.87-1.08v2.16a4.16,4.16,0,0,0,2.16,0V65.16l1.87,1.08a4.27,4.27,0,0,0,1.09-1.87Z" style="fill:#c0e7fa"/><path d="M95.75,66.31l-1.36-.78,1.26,0a.53.53,0,0,0,.5-.57.52.52,0,0,0-.52-.5l-3,0-2.07-1.2L92.71,62l2.52.5a.53.53,0,1,0,.24-1h0l-1.32-.26,1.63-.95a1.08,1.08,0,1,0-1.08-1.87l-1.36.78.62-1a.54.54,0,0,0-.21-.73.53.53,0,0,0-.71.18l-1.59,2.68-2,1.14V58.77l1.63-2.3a.52.52,0,0,0-.15-.74.53.53,0,0,0-.72.12l-.76,1.07V55.38a1.08,1.08,0,1,0-2.16,0h0v1.55l-.74-1a.53.53,0,0,0-.75-.1.52.52,0,0,0-.12.72l1.61,2.28v2.63L84.89,60,84,57.67a.54.54,0,0,0-.7-.3.53.53,0,0,0-.3.69h0l.44,1.11-1.35-.77A1.08,1.08,0,0,0,81,60.27l1.37.79-1.4,0a.55.55,0,0,0-.49.59.54.54,0,0,0,.53.48l3.1-.11,2.12,1.22-2.29,1.32-2.84-.15a.52.52,0,0,0-.54.52.54.54,0,0,0,.48.55l1.21.06L81,66.31a1.08,1.08,0,1,0,1.08,1.87l1.41-.81-.52,1.26a.54.54,0,0,0,1,.41l1-2.55,2.3-1.32v3l-1.59,2.24a.53.53,0,0,0,.87.62l.72-1V71.2a1.08,1.08,0,0,0,1.08,1.08,1.1,1.1,0,0,0,1.08-1.08V70l.78,1.11a.54.54,0,0,0,.75.1.52.52,0,0,0,.12-.72l-1.65-2.34v-3l2.26,1.3.9,2.45a.53.53,0,0,0,.69.31.53.53,0,0,0,.31-.68l-.45-1.24,1.51.88a1.08,1.08,0,0,0,1.21-1.8Z" style="fill:#9cdcf8"/><path d="M92.39,64.37l-1.87-1.08,1.87-1.08a4.15,4.15,0,0,0-1.08-1.87l-1.87,1.08V59.26a4.16,4.16,0,0,0-2.16,0v2.16L85.4,60.34a4.1,4.1,0,0,0-1.08,1.87l1.87,1.08-1.87,1.08a4.15,4.15,0,0,0,1.08,1.87l1.87-1.08v2.16a4.16,4.16,0,0,0,2.16,0V65.16l1.87,1.08a4.17,4.17,0,0,0,1.09-1.87Z" style="fill:#c0e7fa"/></g></g></svg>