<svg xmlns="http://www.w3.org/2000/svg" viewBox="0 0 105.58 79.32"><g id="图层_2" data-name="图层 2"><g id="图层_1-2" data-name="图层 1"><path d="M21.51,20S3.35,17.1.37,32.92C-1.27,41.65,2.78,47,8,50.18a23.28,23.28,0,0,0,9.65,3.31H89a25.81,25.81,0,0,0,6.92-1.41c5.13-1.95,10.86-6.31,9.42-16.58C103.68,23.55,90.88,24,90.88,24a12.67,12.67,0,0,0-9.4-12.29c-6.75-2-11.12.87-11.12.87S62.51-.87,46.16,0C24.61,1.26,21.51,20,21.51,20Z" style="fill:#78a4d6"/><path d="M103.86,35.53c-2-10.73-14.35-10.19-14.35-10.19s.57-9.27-8.69-12.26c-5.62-1.82-11,1-11,1S61.68.29,46.32,1.4C25.62,2.9,22.51,21.65,22.51,21.65S5.12,18,1.85,33.05C-1.69,49.42,17.25,52,17.25,52H50.71S58,51.42,61,48.16c4-4.41,4.24-10.88-.51-14.35-4.28-3.14-9.49-2.44-13.14-1.06-1.48.55-1.62.77-1.8.73s-.55-.43.34-1.07a11.55,11.55,0,0,1,4.56-2.09c7.4-1.71,14.37,2,16.29,7.65a16.64,16.64,0,0,1-.48,12.08c-.52,1.16-.76,1.13-.75,1.55s.57.39.57.39h23.7S106.72,50.59,103.86,35.53Z" style="fill:#c0e7fa"/><path d="M50.7,52S58,51.41,61,48.15A10.37,10.37,0,0,0,63.6,38a8.66,8.66,0,0,0-1.91-3.17,1.45,1.45,0,0,0-.21-.22l-.28-.26c-.23-.2-.47-.41-.72-.59a11.34,11.34,0,0,0-5.17-2.09h-.07c5.83,3.57,3.88,9.68-.08,11.86-3.12,1.72-9.93,2-12.08,1.59-12.87-2.6-12.45-9.44-12.14-12.11.07-.72.52-1,.19-1.13s-1.3.5-1.72.82a8.77,8.77,0,0,0-3.67,8.48A20.2,20.2,0,0,1,11.3,39.77C4.6,36.23,4,29.09,4,27.77l-.19.3c-.18.32-.46.78-.76,1.44-.12.25-.23.52-.34.78,0,.09-.07.18-.1.27-.12.3-.22.62-.32.93l-.12.37c-.09.3-.16.61-.23.92-.11.48-.21,1-.3,1.56s-.12.88-.15,1.31c0,.05,0,.09,0,.14,0,.35,0,.7,0,1v.41c0,.24,0,.48,0,.72.81,12,15.81,14,15.81,14Zm53.48-13.75a18.36,18.36,0,0,0-.32-2.67c0-.21-.09-.41-.12-.6l0-.19-.09-.37a11.12,11.12,0,0,0-3.71-5.8,15.22,15.22,0,0,0-1.33-.94s3.83,11.28-9.93,15.16C83.8,44.18,72.47,44.46,67.52,41a16.46,16.46,0,0,1-1.22,9c-.51,1.17-.75,1.14-.74,1.56s.57.39.57.39H89.82S104.63,50.75,104.18,38.23Z" style="fill:#9cdcf8"/><path d="M43.21,10.28c0,3.41,4.29,6.18,9.58,6.18s9.57-2.77,9.57-6.18S58.08,4.1,52.79,4.1,43.21,6.86,43.21,10.28Z" style="fill:#fff"/><path d="M68.21,60.05c-.32,3-4.32,9.58-4.32,13.79,0,3,1.94,5.48,4.32,5.48s4.31-2.45,4.31-5.48C72.52,69.44,68.48,63.09,68.21,60.05ZM52.61,56c-.32,3-4.31,9.58-4.31,13.79,0,3,1.93,5.48,4.31,5.48s4.31-2.45,4.31-5.48C56.92,65.36,52.88,59,52.61,56ZM21.42,56c-.32,3-4.31,9.58-4.31,13.79,0,3,1.93,5.48,4.31,5.48s4.31-2.45,4.31-5.48C25.73,65.36,21.69,59,21.42,56ZM83.8,56c-.32,3-4.31,9.58-4.31,13.79,0,3,1.93,5.48,4.31,5.48s4.31-2.45,4.31-5.48C88.11,65.36,84.07,59,83.8,56ZM37,60.05c-.31,3-4.31,9.58-4.31,13.79,0,3,1.94,5.48,4.31,5.48s4.32-2.45,4.32-5.48C41.33,69.44,37.29,63.09,37,60.05Z" style="fill:#9cdcf8"/></g></g></svg>