<svg xmlns="http://www.w3.org/2000/svg" viewBox="0 0 103.65 74.62"><g id="图层_2" data-name="图层 2"><g id="图层_1-2" data-name="图层 1"><path d="M21.12,19.59S3.29,16.79.36,32.32c-1.61,8.57,2.37,13.8,7.47,17a23.13,23.13,0,0,0,9.48,3.25H87.39a25.69,25.69,0,0,0,6.78-1.39c5-1.91,10.67-6.19,9.26-16.28-1.64-11.73-14.21-11.29-14.21-11.29A12.45,12.45,0,0,0,80,11.49c-6.62-2-10.92.86-10.92.86S61.37-.85,45.32,0C24.16,1.23,21.12,19.59,21.12,19.59Z" style="fill:#78a4d6"/><path d="M102,34.88c-2-10.54-14.08-10-14.08-10s.56-9.09-8.54-12c-5.52-1.78-10.76,1-10.76,1S60.55.28,45.48,1.37C25.15,2.85,22.1,21.26,22.1,21.26S5,17.62,1.81,32.44C-1.66,48.52,16.94,51,16.94,51H49.78s7.2-.56,10.11-3.76c4-4.33,4.17-10.68-.49-14.09-4.21-3.08-9.32-2.39-12.9-1a15.59,15.59,0,0,1-1.78.72c-.13,0-.53-.42.34-1.06a11.29,11.29,0,0,1,4.48-2c7.27-1.68,14.11,2,16,7.5a16.26,16.26,0,0,1-.48,11.86c-.5,1.14-.74,1.12-.73,1.53s.56.38.56.38H88.14S104.76,49.66,102,34.88Z" style="fill:#c0e7fa"/><path d="M49.77,51s7.2-.56,10.11-3.76a10.21,10.21,0,0,0,2.56-9.93,8.6,8.6,0,0,0-1.87-3.11,2.08,2.08,0,0,0-.21-.21l-.28-.26c-.22-.2-.46-.4-.7-.58a11.21,11.21,0,0,0-5.08-2.05h-.07c5.73,3.5,3.81,9.51-.08,11.64-3.06,1.69-9.75,2-11.86,1.56-12.64-2.55-12.22-9.26-11.92-11.88.08-.71.51-.94.19-1.12s-1.27.5-1.69.81a8.62,8.62,0,0,0-3.6,8.33A19.78,19.78,0,0,1,11.1,39C4.52,35.57,3.91,28.56,3.87,27.26l-.18.3c-.18.31-.45.77-.75,1.41l-.33.77c0,.09-.06.17-.1.26-.12.3-.21.61-.31.92q-.06.16-.12.36c-.08.3-.16.59-.22.9-.12.48-.21,1-.3,1.53s-.11.87-.15,1.29c0,0,0,.09,0,.14,0,.34,0,.68,0,1v.41c0,.23,0,.48,0,.71C2.18,49,16.91,51,16.91,51Zm52.5-13.5a17.83,17.83,0,0,0-.31-2.62c0-.21-.08-.41-.12-.59l0-.19c0-.12-.06-.23-.08-.36a10.9,10.9,0,0,0-3.65-5.69c-.42-.33-.85-.64-1.3-.93,0,0,3.76,11.08-9.75,14.89-4.76,1.34-15.87,1.61-20.73-1.78a16.27,16.27,0,0,1-1.2,8.82c-.51,1.14-.74,1.12-.73,1.53s.56.38.56.38H88.18S102.72,49.82,102.27,37.53Z" style="fill:#9cdcf8"/><path d="M42.42,10.09c0,3.35,4.21,6.07,9.4,6.07s9.4-2.72,9.4-6.07S57,4,51.82,4s-9.4,2.72-9.4,6.07Z" style="fill:#fff"/><path d="M59.28,68.58l-1.37-.79,1.27,0a.55.55,0,0,0,0-1.09l-3.08,0L54,65.53l2.22-1.28,2.54.51a.54.54,0,0,0,.65-.4.55.55,0,0,0-.4-.66h0l-1.33-.27,1.65-1a1.09,1.09,0,1,0-1.09-1.89h0l-1.38.79.63-1a.55.55,0,0,0-.22-.74.56.56,0,0,0-.72.19l-1.61,2.71-2,1.15V61l1.65-2.32a.55.55,0,0,0-.16-.75.53.53,0,0,0-.73.12l-.76,1.08V57.52a1.1,1.1,0,0,0-2.19,0v1.57L50,58a.54.54,0,0,0-.76-.11.56.56,0,0,0-.13.74L50.7,61v2.67l-2.41-1.4-.95-2.39a.54.54,0,0,0-.7-.31.55.55,0,0,0-.3.71h0l.44,1.12-1.36-.79a1.1,1.1,0,1,0-1.1,1.9l1.38.8-1.41,0a.55.55,0,0,0,0,1.09l3.14-.12,2.14,1.24L47.3,66.86l-2.88-.15a.54.54,0,0,0-.55.53.55.55,0,0,0,.49.55l1.22.07-1.26.72a1.1,1.1,0,0,0,1.1,1.9l1.42-.83-.52,1.29a.52.52,0,0,0,.31.69.54.54,0,0,0,.69-.28l1.06-2.59,2.33-1.34v3.1L49.1,72.79a.54.54,0,0,0,.88.62l.72-1v1.14a1.1,1.1,0,0,0,2.19,0V72.32l.79,1.12a.55.55,0,0,0,.89-.63l-1.68-2.36v-3l2.29,1.32.91,2.47a.54.54,0,0,0,1-.37l-.47-1.25,1.54.89a1.11,1.11,0,0,0,1.51-.37,1.1,1.1,0,0,0-.37-1.5l0,0Z" style="fill:#9cdcf8"/><path d="M55.88,66.62,54,65.53l1.89-1.1a4.27,4.27,0,0,0-1.09-1.9l-1.9,1.1V61.45a4.07,4.07,0,0,0-2.19,0v2.18l-1.89-1.09a4.2,4.2,0,0,0-1.1,1.89l1.9,1.09-1.9,1.1a4.2,4.2,0,0,0,1.1,1.89l1.89-1.09v2.19a4.28,4.28,0,0,0,2.19,0V67.42l1.89,1.09a4.17,4.17,0,0,0,1.1-1.89Z" style="fill:#c0e7fa"/></g></g></svg>