<svg xmlns="http://www.w3.org/2000/svg" viewBox="0 0 102.58 75.97"><g id="图层_2" data-name="图层 2"><g id="图层_1-2" data-name="图层 1"><path d="M21.69,74.68a1.64,1.64,0,0,1-2.1,1h0a1.64,1.64,0,0,1-1-2.1h0l8.1-21.78a1.65,1.65,0,0,1,2.11-1h0a1.64,1.64,0,0,1,1,2.1h0Zm28.11.21a1.64,1.64,0,0,1-3.08-1.13h0L54.83,52a1.64,1.64,0,1,1,3.08,1.12h0Zm26.6,0a1.64,1.64,0,0,1-2.1,1h0a1.64,1.64,0,0,1-1-2.1h0L81.42,52a1.64,1.64,0,1,1,3.08,1.12h0Z" style="fill:#9cdcf8"/><path d="M20.9,19.39S3.26,16.62.36,32c-1.6,8.48,2.34,13.65,7.4,16.77A22.81,22.81,0,0,0,17.14,52H86.48A25.23,25.23,0,0,0,93.2,50.6c5-1.89,10.56-6.13,9.16-16.11C100.74,22.88,88.3,23.32,88.3,23.32a12.32,12.32,0,0,0-9.13-11.94c-6.56-2-10.81.84-10.81.84S60.74-.84,44.85,0C23.91,1.22,20.9,19.39,20.9,19.39Z" style="fill:#78a4d6"/><path d="M100.91,34.52c-2-10.43-13.93-9.9-13.93-9.9s.55-9-8.45-11.9c-5.46-1.77-10.66.95-10.66.95S59.93.28,45,1.36C24.89,2.82,21.87,21,21.87,21S5,17.44,1.8,32.11c-3.44,15.91,15,18.4,15,18.4H49.27s7.12-.55,10-3.72c3.91-4.28,4.12-10.57-.5-13.94-4.16-3.05-9.22-2.37-12.76-1-1.44.54-1.58.75-1.76.71s-.53-.42.33-1.05a11.31,11.31,0,0,1,4.43-2c7.2-1.66,14,1.94,15.83,7.43a16.06,16.06,0,0,1-.47,11.73c-.5,1.13-.73,1.11-.72,1.51s.55.38.55.38h23s16.46-1.36,13.68-16Z" style="fill:#c0e7fa"/><path d="M49.26,50.5s7.12-.55,10-3.72A10.07,10.07,0,0,0,61.79,37a8.43,8.43,0,0,0-1.85-3.08,2.08,2.08,0,0,0-.21-.21l-.27-.26c-.22-.19-.46-.39-.7-.57a10.94,10.94,0,0,0-5-2h-.07c5.67,3.46,3.77,9.4-.08,11.51-3,1.67-9.65,2-11.73,1.55-12.51-2.53-12.1-9.18-11.8-11.77.07-.7.5-.93.18-1.1s-1.26.49-1.67.8A8.52,8.52,0,0,0,25,40.05a19.64,19.64,0,0,1-14-1.41C4.47,35.21,3.87,28.28,3.84,27l-.19.29c-.17.3-.44.76-.74,1.4-.11.24-.22.5-.33.76,0,.08-.06.17-.1.26-.11.29-.21.6-.3.91,0,.11-.08.22-.12.35-.08.3-.16.59-.22.9s-.21,1-.29,1.51a11.82,11.82,0,0,0-.15,1.27s0,.09,0,.14c0,.34,0,.67,0,1v.4c0,.23,0,.47,0,.7C2.16,48.52,16.74,50.5,16.74,50.5Zm52-13.36a18.87,18.87,0,0,0-.31-2.59l-.12-.59,0-.18c0-.12-.06-.23-.08-.36a10.78,10.78,0,0,0-3.61-5.63c-.42-.33-.85-.63-1.29-.92,0,0,3.72,11-9.65,14.74-4.7,1.32-15.7,1.59-20.52-1.76a16,16,0,0,1-1.18,8.73c-.5,1.13-.73,1.1-.72,1.51s.55.38.55.38h23S101.66,49.31,101.22,37.14Z" style="fill:#9cdcf8"/><path d="M42,10c0,3.31,4.16,6,9.3,6s9.31-2.68,9.31-6h0c0-3.32-4.16-6-9.3-6S42,6.67,42,10Z" style="fill:#fff"/><path d="M17.6,67.87l-1.36-.78,1.26,0A.54.54,0,0,0,18,66.5a.53.53,0,0,0-.52-.5l-3,0-2.07-1.2,2.19-1.27,2.52.51a.54.54,0,0,0,.65-.4.55.55,0,0,0-.4-.65h0L16,62.77l1.64-.94A1.09,1.09,0,0,0,16.52,60h0l-1.36.79.62-1a.54.54,0,0,0-.21-.73.53.53,0,0,0-.71.18l-1.61,2.69-2,1.14V60.32L12.91,58A.54.54,0,0,0,12,57.4l-.75,1.07V56.93a1.09,1.09,0,0,0-2.17,0h0v1.55l-.74-1a.54.54,0,0,0-.88.62l1.62,2.28V63L6.72,61.59l-.94-2.36a.53.53,0,0,0-.69-.31.53.53,0,0,0-.3.7l.43,1.11L3.88,60a1.09,1.09,0,0,0-1.09,1.88l1.37.79-1.4.05a.55.55,0,0,0-.49.59.54.54,0,0,0,.53.48l3.1-.11L8,64.86,5.74,66.18,2.89,66a.54.54,0,0,0-.54.53.53.53,0,0,0,.48.54L4,67.16l-1.25.72a1.08,1.08,0,1,0,1.09,1.87l1.41-.82L4.77,70.2a.54.54,0,0,0,1,.41l1-2.56,2.3-1.32v3.06L7.52,72a.55.55,0,0,0,.15.75.54.54,0,0,0,.73-.13l.71-1v1.12a1.09,1.09,0,1,0,2.17,0V71.58l.78,1.1a.54.54,0,0,0,.75.11.55.55,0,0,0,.13-.73l-1.66-2.34v-3L13.54,68l.9,2.45a.54.54,0,0,0,1-.37L15,68.87l1.52.88a1.09,1.09,0,0,0,1.09-1.88Z" style="fill:#9cdcf8"/><path d="M14.23,65.93l-1.87-1.08,1.87-1.08a4.19,4.19,0,0,0-1.08-1.88L11.28,63V60.81a4.2,4.2,0,0,0-2.17,0V63L7.23,61.89a4.28,4.28,0,0,0-1.08,1.88L8,64.85,6.15,65.93a4.21,4.21,0,0,0,1.09,1.88l1.87-1.08v2.16a4.2,4.2,0,0,0,2.17,0V66.73l1.87,1.08a4.19,4.19,0,0,0,1.08-1.88Z" style="fill:#c0e7fa"/><path d="M72.5,67.87l-1.36-.78,1.26,0a.53.53,0,0,0,.5-.57.52.52,0,0,0-.52-.5l-3,0-2.08-1.2,2.19-1.27,2.52.51a.54.54,0,0,0,.65-.4.52.52,0,0,0-.4-.64h0l-1.32-.27,1.64-.94A1.08,1.08,0,0,0,71.42,60h0l-1.37.79.62-1a.54.54,0,0,0-.92-.55l-1.6,2.69-2,1.14V60.32L67.81,58a.53.53,0,0,0-.15-.74.54.54,0,0,0-.73.12l-.75,1.07V56.93a1.09,1.09,0,0,0-2.17,0h0v1.55l-.74-1a.53.53,0,0,0-.75-.1.52.52,0,0,0-.12.72L64,60.33V63l-2.39-1.38-.93-2.36a.54.54,0,1,0-1,.39l.44,1.11L58.78,60a1.08,1.08,0,0,0-1.08,1.88l1.36.79-1.4.05a.54.54,0,0,0-.48.59.53.53,0,0,0,.53.48l3.1-.11,2.12,1.22-2.29,1.32L57.79,66a.54.54,0,0,0-.06,1.08l1.21.06-1.25.72a1.09,1.09,0,0,0,1.09,1.88l1.41-.82-.52,1.27a.54.54,0,0,0,1,.41l1.06-2.56L64,66.73v3.06L62.42,72a.55.55,0,0,0,.15.75.54.54,0,0,0,.73-.13l.71-1v1.12a1.09,1.09,0,0,0,2.17,0V71.58l.78,1.1a.54.54,0,0,0,.75.11.55.55,0,0,0,.13-.73l-1.66-2.34v-3L68.44,68l.9,2.45a.54.54,0,0,0,.69.32.53.53,0,0,0,.31-.69l-.45-1.24,1.52.88a1.08,1.08,0,1,0,1.12-1.85l0,0Z" style="fill:#9cdcf8"/><path d="M69.13,65.93l-1.87-1.08,1.87-1.08a4.19,4.19,0,0,0-1.08-1.88L66.18,63V60.81a4.2,4.2,0,0,0-2.17,0V63l-1.87-1.08a4.17,4.17,0,0,0-1.09,1.87l1.88,1.09-1.88,1.08a4.21,4.21,0,0,0,1.09,1.88L64,66.72v2.17a4.2,4.2,0,0,0,2.17,0V66.73l1.87,1.08a4.19,4.19,0,0,0,1.08-1.88Z" style="fill:#c0e7fa"/><path d="M100,67.87l-1.36-.78,1.26,0a.55.55,0,0,0,.51-.57.53.53,0,0,0-.53-.5l-3,0-2.07-1.2,2.19-1.27,2.52.51a.52.52,0,0,0,.64-.4.54.54,0,0,0-.39-.65h0l-1.32-.27,1.64-.94a1.09,1.09,0,0,0-1-1.91l-.06,0-1.36.79.62-1a.54.54,0,0,0-.93-.55l-1.59,2.69-2,1.14V60.32L95.26,58a.53.53,0,0,0-.87-.62l-.76,1.07V56.93a1.09,1.09,0,0,0-2.17,0h0v1.55l-.74-1a.53.53,0,0,0-.75-.1.52.52,0,0,0-.12.72l1.61,2.28V63l-2.39-1.38-.93-2.36a.54.54,0,1,0-1,.39l.44,1.11L86.23,60a1.08,1.08,0,0,0-1.08,1.88l1.36.79-1.4.05a.54.54,0,0,0-.48.59.53.53,0,0,0,.53.48l3.1-.11,2.12,1.23-2.29,1.32L85.25,66a.54.54,0,0,0-.55.52.55.55,0,0,0,.49.55l1.21.06-1.25.72a1.08,1.08,0,0,0,1.08,1.88l1.41-.82-.52,1.27a.55.55,0,0,0,.31.7.54.54,0,0,0,.68-.29l1.06-2.56,2.3-1.32v3.06L89.87,72a.55.55,0,0,0,.16.75.53.53,0,0,0,.72-.13l.71-1v1.12a1.09,1.09,0,0,0,2.17,0V71.58l.78,1.1a.54.54,0,0,0,.88-.62l-1.66-2.34v-3L95.9,68l.9,2.45a.53.53,0,1,0,1-.37l-.45-1.24,1.52.88a1.09,1.09,0,0,0,1.49-.37A1.07,1.07,0,0,0,100,67.9l0,0Z" style="fill:#9cdcf8"/><path d="M96.58,65.93l-1.87-1.08,1.87-1.08a4.19,4.19,0,0,0-1.08-1.88L93.63,63V60.81a4.2,4.2,0,0,0-2.17,0V63l-1.87-1.08a4.17,4.17,0,0,0-1.09,1.87l1.88,1.09L88.5,65.93a4.21,4.21,0,0,0,1.09,1.88l1.87-1.09v2.17a4.2,4.2,0,0,0,2.17,0V66.73l1.87,1.08a4.19,4.19,0,0,0,1.08-1.88Z" style="fill:#c0e7fa"/><path d="M45.05,67.87l-1.36-.78,1.26,0a.53.53,0,0,0,.5-.57.52.52,0,0,0-.52-.5l-3,0-2.08-1.2L42,63.58l2.52.51a.54.54,0,0,0,.27-1h-.06l-1.32-.27L45,61.83A1.08,1.08,0,1,0,44,60h0l-1.36.79.62-1a.54.54,0,0,0-.93-.55L40.7,61.84l-2,1.14V60.32L40.36,58a.54.54,0,0,0-.88-.62l-.75,1.07V56.93a1.09,1.09,0,0,0-2.17,0v1.55l-.74-1a.54.54,0,0,0-.88.62l1.62,2.28V63l-2.39-1.38-.93-2.36a.54.54,0,1,0-1,.39h0l.44,1.11L31.33,60a1.09,1.09,0,0,0-1.09,1.88h0l1.37.79-1.4.05a.54.54,0,0,0-.48.59.52.52,0,0,0,.52.48l3.11-.11,2.12,1.23-2.29,1.32L30.34,66a.54.54,0,0,0-.54.53.53.53,0,0,0,.49.54l1.2.07-1.25.72a1.08,1.08,0,0,0,1.09,1.87l1.41-.82-.52,1.27a.54.54,0,0,0,1,.41l1-2.56,2.3-1.32v3.06L35,72a.55.55,0,0,0,.15.75.54.54,0,0,0,.73-.13l.71-1v1.12a1.09,1.09,0,1,0,2.17,0h0V71.58l.78,1.1a.54.54,0,0,0,.75.11.55.55,0,0,0,.13-.73l-1.66-2.34v-3L41,68l.9,2.45a.54.54,0,1,0,1-.37l-.46-1.24,1.52.88a1.08,1.08,0,0,0,1.13-1.85l-.05,0Z" style="fill:#9cdcf8"/><path d="M41.68,65.93l-1.87-1.08,1.87-1.08a4.28,4.28,0,0,0-1.08-1.88L38.72,63V60.81a4.16,4.16,0,0,0-2.16,0V63l-1.88-1.08a4.15,4.15,0,0,0-1.08,1.87l1.87,1.09L33.6,65.93a4.19,4.19,0,0,0,1.08,1.88l1.88-1.09v2.17a4.16,4.16,0,0,0,2.16,0V66.73l1.87,1.08a4.21,4.21,0,0,0,1.09-1.88Z" style="fill:#c0e7fa"/></g></g></svg>