<svg xmlns="http://www.w3.org/2000/svg" viewBox="0 0 75.39 85.46"><g id="图层_2" data-name="图层 2"><g id="图层_1-2" data-name="图层 1"><path d="M72.79,57.08l-6.43-3.72,6-.1a2.55,2.55,0,0,0-.09-5.09l-14.46.24L48,42.73l10.4-6,12,2.41a2.55,2.55,0,0,0,1.17-5l-.17,0-6.27-1.27,7.77-4.48a5.14,5.14,0,0,0-5.14-8.91L61.22,23.2l2.92-4.92a2.54,2.54,0,0,0-4.37-2.6L52.2,28.42l-9.38,5.43V21.25l7.74-10.91a2.55,2.55,0,0,0-4.15-2.95l-3.59,5.06V5.14a5.14,5.14,0,0,0-10.28,0v7.35L29,7.52a2.54,2.54,0,0,0-4.15,2.94l7.68,10.82V33.83L21.18,27.26,16.76,16A2.55,2.55,0,1,0,12,17.88h0l2.09,5.3L7.72,19.49a5.14,5.14,0,1,0-5.15,8.9l6.49,3.75-6.64.26a2.55,2.55,0,0,0,.19,5.08l14.73-.54,10.08,5.82L16.56,49,3,48.29a2.55,2.55,0,0,0-.27,5.09l5.73.31L2.57,57.1A5.14,5.14,0,1,0,7.72,66l6.7-3.87-2.48,6a2.55,2.55,0,0,0,4.71,1.94l5-12.14,10.9-6.3V66.18L25,76.82a2.55,2.55,0,0,0,4.16,2.94L32.53,75v5.34a5.14,5.14,0,1,0,10.27,0h0V74.66l3.72,5.24a2.55,2.55,0,0,0,4.16-3L42.8,65.86V51.63l10.75,6.2,4.28,11.62a2.54,2.54,0,0,0,4.77-1.76l-2.17-5.88L67.65,66a5.14,5.14,0,1,0,5.14-8.9Z" style="fill:#9cdcf8"/><path d="M56.84,47.86,48,42.73l8.88-5.15a19.83,19.83,0,0,0-5.14-8.91L42.83,33.8V23.56a19.91,19.91,0,0,0-10.28,0V33.83l-8.91-5.14a20,20,0,0,0-5.14,8.89l8.91,5.14L18.5,47.86a19.85,19.85,0,0,0,5.15,8.9l8.9-5.14V61.89a19.7,19.7,0,0,0,10.28,0V51.63l8.88,5.13a19.87,19.87,0,0,0,5.13-8.9Z" style="fill:#c0e7fa"/></g></g></svg>